<svg width="500" height="316" viewBox="0 0 500 316" fill="none" xmlns="http://www.w3.org/2000/svg">
<g clip-path="url(#clip0_250_540)">
<path d="M296.688 9.67254C332.683 -9.58685 378.368 0.50986 402.589 34.6594L401.764 35.2443C377.842 1.51635 332.717 -8.45323 297.165 10.5642C294.144 12.1802 291.229 13.985 288.435 15.9677C251.876 41.8981 243.228 92.7371 269.158 129.297L268.334 129.882C242.081 92.8676 250.836 41.3958 287.85 15.1432C290.679 13.1363 293.631 11.3091 296.688 9.67254Z" fill="#E6E6E6"/>
<path d="M487.374 91.9942L368.984 82.7839C367.146 82.6388 365.441 81.7707 364.242 80.37C363.043 78.9692 362.45 77.1503 362.59 75.3121L367.723 17.7905C367.868 15.9527 368.736 14.2475 370.137 13.0489C371.537 11.8504 373.356 11.2564 375.195 11.3973L493.585 20.6076C495.423 20.7527 497.128 21.6208 498.327 23.0216C499.525 24.4223 500.119 26.2413 499.978 28.0794L494.846 85.601C494.701 87.4388 493.832 89.144 492.432 90.3426C491.031 91.5411 489.212 92.1351 487.374 91.9942Z" fill="#E6E6E6"/>
<path d="M459.41 78.9992C458.511 78.9992 457.609 78.9641 456.704 78.8938L380.192 72.9415C378.662 72.8226 377.171 72.4034 375.803 71.7081C374.435 71.0127 373.218 70.0547 372.22 68.8888C371.223 67.7229 370.464 66.3719 369.989 64.913C369.513 63.454 369.33 61.9157 369.449 60.3859L371.194 37.9587C371.437 34.8702 372.896 32.0046 375.25 29.9904C377.604 27.9763 380.661 26.9781 383.75 27.2149L482.689 34.9119C485.777 35.1558 488.642 36.6147 490.657 38.9685C492.671 41.3223 493.669 44.3789 493.432 47.4678C492.765 56.0387 488.893 64.0435 482.587 69.8871C476.282 75.7308 468.007 78.9842 459.41 78.9992Z" fill="white"/>
<path d="M480.322 52.7407L383.331 45.1953C383.129 45.1796 382.932 45.1242 382.752 45.0324C382.571 44.9405 382.41 44.814 382.278 44.66C382.147 44.506 382.046 44.3276 381.984 44.1349C381.921 43.9422 381.897 43.739 381.912 43.5369C381.928 43.3349 381.983 43.1379 382.075 42.9572C382.167 42.7765 382.294 42.6157 382.448 42.484C382.602 42.3522 382.78 42.2521 382.973 42.1892C383.166 42.1264 383.369 42.1022 383.571 42.1179L480.561 49.6633C480.763 49.679 480.96 49.7344 481.141 49.8263C481.321 49.9181 481.482 50.0447 481.614 50.1987C481.746 50.3526 481.846 50.5311 481.909 50.7238C481.971 50.9165 481.996 51.1197 481.98 51.3217C481.964 51.5238 481.909 51.7208 481.817 51.9015C481.725 52.0821 481.599 52.2429 481.445 52.3747C481.291 52.5065 481.112 52.6066 480.92 52.6694C480.727 52.7322 480.524 52.7564 480.322 52.7407Z" fill="#E6E6E6"/>
<path d="M440.049 55.7246L382.858 51.2755C382.45 51.2435 382.072 51.0508 381.806 50.7399C381.54 50.4289 381.408 50.025 381.44 49.6171C381.472 49.2091 381.664 48.8305 381.975 48.5644C382.286 48.2982 382.69 48.1664 383.098 48.1979L440.288 52.6471C440.49 52.6627 440.687 52.718 440.868 52.8098C441.049 52.9016 441.21 53.0282 441.342 53.1822C441.474 53.3362 441.574 53.5147 441.637 53.7075C441.699 53.9003 441.724 54.1035 441.708 54.3057C441.692 54.5078 441.637 54.7049 441.545 54.8856C441.453 55.0664 441.326 55.2272 441.172 55.359C441.018 55.4908 440.84 55.5909 440.647 55.6536C440.454 55.7164 440.251 55.7405 440.049 55.7246Z" fill="#E6E6E6"/>
<path d="M452.647 62.8217L382.385 57.3557C382.183 57.3401 381.986 57.2848 381.805 57.193C381.624 57.1012 381.464 56.9747 381.332 56.8206C381.2 56.6666 381.1 56.4881 381.037 56.2953C380.974 56.1026 380.95 55.8993 380.965 55.6972C380.981 55.495 381.036 55.2979 381.128 55.1172C381.22 54.9365 381.347 54.7756 381.501 54.6438C381.655 54.5121 381.834 54.4119 382.026 54.3492C382.219 54.2864 382.423 54.2623 382.625 54.2782L452.886 59.7442C453.294 59.7762 453.673 59.9688 453.939 60.2798C454.205 60.5908 454.336 60.9947 454.304 61.4026C454.273 61.8106 454.08 62.1892 453.769 62.4553C453.459 62.7214 453.055 62.8532 452.647 62.8217Z" fill="#E6E6E6"/>
<path d="M479.452 170.079L361.061 160.869C359.224 160.724 357.518 159.856 356.32 158.455C355.121 157.054 354.527 155.235 354.668 153.397L359.801 95.8754C359.946 94.0376 360.814 92.3324 362.215 91.1339C363.615 89.9354 365.434 89.3414 367.272 89.4823L485.663 98.6926C487.501 98.8376 489.206 99.7058 490.404 101.107C491.603 102.507 492.197 104.326 492.056 106.164L486.924 163.686C486.779 165.524 485.91 167.229 484.51 168.428C483.109 169.626 481.29 170.22 479.452 170.079Z" fill="#E6E6E6"/>
<path d="M451.457 157.083C450.571 157.083 449.679 157.048 448.782 156.979L372.27 151.026C370.74 150.907 369.249 150.488 367.881 149.793C366.513 149.097 365.296 148.139 364.298 146.974C363.3 145.808 362.542 144.457 362.067 142.998C361.591 141.539 361.408 140 361.527 138.471L363.271 116.044C363.39 114.514 363.81 113.022 364.505 111.654C365.2 110.286 366.158 109.069 367.324 108.071C368.49 107.074 369.841 106.315 371.3 105.84C372.759 105.364 374.298 105.181 375.828 105.3L474.766 112.997C476.296 113.116 477.788 113.535 479.155 114.23C480.523 114.926 481.741 115.884 482.738 117.05C483.736 118.216 484.494 119.567 484.97 121.026C485.445 122.485 485.629 124.023 485.51 125.553C484.832 134.125 480.953 142.128 474.643 147.97C468.333 153.813 460.056 157.066 451.457 157.083Z" fill="white"/>
<path d="M472.398 130.826L375.408 123.28C375.206 123.265 375.009 123.209 374.828 123.117C374.648 123.025 374.487 122.899 374.355 122.745C374.223 122.591 374.123 122.413 374.06 122.22C373.998 122.027 373.973 121.824 373.989 121.622C374.005 121.42 374.06 121.223 374.152 121.042C374.244 120.862 374.37 120.701 374.524 120.569C374.678 120.437 374.857 120.337 375.049 120.274C375.242 120.211 375.445 120.187 375.647 120.203L472.638 127.748C472.84 127.764 473.037 127.819 473.217 127.911C473.398 128.003 473.559 128.13 473.691 128.284C473.822 128.438 473.923 128.616 473.985 128.809C474.048 129.001 474.072 129.205 474.057 129.407C474.041 129.609 473.986 129.806 473.894 129.986C473.802 130.167 473.675 130.328 473.521 130.46C473.367 130.591 473.189 130.692 472.996 130.754C472.803 130.817 472.6 130.841 472.398 130.826Z" fill="#E6E6E6"/>
<path d="M432.125 133.81L374.935 129.361C374.733 129.345 374.536 129.29 374.355 129.198C374.174 129.106 374.013 128.98 373.882 128.826C373.75 128.672 373.649 128.493 373.587 128.3C373.524 128.107 373.499 127.904 373.515 127.702C373.531 127.5 373.586 127.303 373.678 127.122C373.77 126.941 373.897 126.78 374.051 126.649C374.205 126.517 374.384 126.417 374.576 126.354C374.769 126.291 374.972 126.267 375.175 126.283L432.365 130.732C432.773 130.764 433.151 130.957 433.417 131.268C433.683 131.579 433.815 131.983 433.783 132.391C433.751 132.799 433.559 133.177 433.248 133.443C432.937 133.709 432.533 133.841 432.125 133.81Z" fill="#E6E6E6"/>
<path d="M444.723 140.907L374.462 135.441C374.054 135.409 373.675 135.216 373.409 134.905C373.143 134.594 373.011 134.19 373.043 133.782C373.074 133.374 373.267 132.995 373.578 132.729C373.889 132.463 374.293 132.331 374.701 132.363L444.963 137.829C445.371 137.861 445.75 138.053 446.016 138.364C446.282 138.675 446.414 139.079 446.382 139.488C446.35 139.896 446.157 140.274 445.846 140.541C445.535 140.807 445.131 140.938 444.723 140.907Z" fill="#E6E6E6"/>
<path d="M178.301 140.026C176.798 136.62 175.981 132.952 175.896 129.231C175.811 125.509 176.459 121.807 177.805 118.337C179.15 114.866 181.166 111.694 183.738 109.002C186.309 106.311 189.385 104.152 192.791 102.649C196.196 101.146 199.865 100.329 203.586 100.244C207.308 100.159 211.009 100.807 214.48 102.153C217.951 103.498 221.123 105.514 223.814 108.086C226.506 110.657 228.665 113.733 230.168 117.139L229.243 117.547C227.794 114.263 225.712 111.296 223.116 108.817C220.52 106.337 217.462 104.393 214.115 103.096C210.768 101.798 207.198 101.172 203.609 101.255C200.021 101.337 196.483 102.125 193.199 103.574C189.915 105.023 186.948 107.105 184.469 109.701C181.989 112.296 180.045 115.355 178.748 118.702C177.45 122.049 176.825 125.619 176.907 129.207C176.989 132.796 177.777 136.334 179.226 139.618L178.301 140.026Z" fill="#E6E6E6"/>
<path d="M472.119 298.106C483.693 292.622 492.314 281.587 490.969 269.461C480.586 277.869 466.449 282.564 451.856 282.452C446.171 282.408 439.806 281.83 435.675 285.019C433.105 287.004 431.946 290.155 431.799 293.295C431.653 296.436 432.414 299.615 433.171 302.752L432.941 303.496C446.53 304.361 460.545 303.59 472.119 298.106Z" fill="#F2F2F2"/>
<path d="M490.685 269.431C486.209 278.165 478.448 285.445 468.803 289.706C466.69 290.692 464.44 291.353 462.129 291.667C459.775 291.913 457.397 291.602 455.186 290.76C453.09 290.008 451.024 289.028 448.801 288.73C447.712 288.578 446.604 288.647 445.543 288.933C444.482 289.219 443.49 289.717 442.625 290.395C440.571 291.993 439.346 294.203 438.235 296.408C437.002 298.857 435.767 301.421 433.353 303.09C433.06 303.292 433.468 303.712 433.76 303.511C437.96 300.607 438.566 295.357 441.903 291.841C442.688 290.953 443.664 290.255 444.757 289.798C445.851 289.341 447.033 289.137 448.217 289.202C450.485 289.369 452.617 290.378 454.734 291.155C456.886 292.005 459.195 292.384 461.505 292.267C463.835 292.061 466.116 291.481 468.261 290.549C472.924 288.608 477.241 285.922 481.043 282.596C485.243 278.963 488.711 274.562 491.258 269.628C491.413 269.326 490.839 269.131 490.685 269.431Z" fill="white"/>
<path d="M472.034 288.476C473.252 289.913 474.888 290.935 476.714 291.399C478.541 291.863 480.466 291.747 482.223 291.066C482.56 290.924 482.285 290.43 481.947 290.572C480.313 291.209 478.52 291.317 476.82 290.882C475.121 290.447 473.601 289.49 472.473 288.146C472.237 287.858 471.798 288.189 472.034 288.476Z" fill="white"/>
<path d="M456.203 291.262C456.427 289.556 457.01 287.917 457.914 286.452C458.817 284.987 460.02 283.731 461.444 282.765C461.736 282.562 461.329 282.141 461.037 282.344C459.558 283.352 458.309 284.662 457.372 286.188C456.436 287.714 455.833 289.422 455.605 291.197C455.563 291.536 456.162 291.599 456.203 291.262Z" fill="white"/>
<path d="M484.555 278.593C483.999 278.165 483.561 277.602 483.283 276.958C483.005 276.313 482.896 275.608 482.967 274.91C483.013 274.572 482.414 274.51 482.368 274.845C482.293 275.617 482.414 276.395 482.72 277.108C483.025 277.82 483.505 278.444 484.116 278.922C484.171 278.976 484.243 279.01 484.319 279.019C484.396 279.027 484.474 279.009 484.539 278.968C484.567 278.946 484.591 278.918 484.607 278.886C484.624 278.855 484.633 278.82 484.634 278.784C484.636 278.748 484.63 278.713 484.616 278.68C484.602 278.646 484.582 278.617 484.555 278.593Z" fill="white"/>
<path d="M452.783 243.822C452.747 244.032 452.712 244.241 452.671 244.452C452.176 247.261 451.419 250.017 450.411 252.685C450.337 252.892 450.258 253.101 450.178 253.306C447.628 259.765 443.751 265.617 438.797 270.484C436.779 272.472 434.603 274.292 432.289 275.927C429.064 278.209 425.341 280.439 423.3 283.514C423.084 283.831 422.89 284.163 422.72 284.507L431.916 303.112C431.96 303.147 431.999 303.183 432.043 303.218L432.373 303.973C432.501 303.896 432.632 303.813 432.759 303.736C432.834 303.691 432.906 303.643 432.981 303.598C433.03 303.567 433.078 303.536 433.125 303.511C433.141 303.5 433.157 303.49 433.169 303.481C433.215 303.456 433.255 303.428 433.297 303.404C434.028 302.944 434.756 302.478 435.481 302.006C435.486 302.005 435.486 302.005 435.489 301.999C441.004 298.393 446.192 294.317 450.453 289.615C450.582 289.474 450.715 289.331 450.839 289.181C452.733 287.068 454.43 284.785 455.907 282.362C456.703 281.045 457.422 279.682 458.061 278.282C459.7 274.663 460.672 270.778 460.928 266.813C461.447 258.872 459.092 250.661 453.235 244.304C453.085 244.142 452.937 243.983 452.783 243.822Z" fill="#F2F2F2"/>
<path d="M452.548 243.949C455.109 253.771 454.227 264.13 449.89 272.944C448.988 274.901 447.746 276.683 446.221 278.206C444.587 279.703 442.579 280.73 440.408 281.179C438.33 281.671 436.12 281.954 434.254 282.9C433.338 283.358 432.544 284.027 431.936 284.851C431.328 285.675 430.924 286.632 430.757 287.642C430.301 290.104 430.88 292.64 431.541 295.109C432.276 297.851 433.086 300.691 432.409 303.408C432.327 303.737 432.916 303.875 432.998 303.546C434.177 298.819 431.077 294.039 431.196 289.257C431.251 287.026 432.064 284.852 434.136 283.615C435.948 282.534 438.227 282.24 440.337 281.759C442.47 281.344 444.469 280.415 446.16 279.05C447.77 277.613 449.092 275.883 450.055 273.951C452.261 269.695 453.68 265.075 454.241 260.314C454.914 254.79 454.531 249.188 453.111 243.807C453.022 243.468 452.46 243.612 452.548 243.949Z" fill="white"/>
<path d="M451.477 270.158C455.259 271.343 459.272 269.925 460.858 266.861C461.015 266.559 460.475 266.289 460.318 266.591C458.832 269.461 455.119 270.749 451.583 269.641C451.21 269.525 451.107 270.042 451.477 270.158Z" fill="white"/>
<path d="M441.512 281.056C440.543 279.595 439.882 277.952 439.568 276.228C439.253 274.503 439.293 272.732 439.684 271.024C439.765 270.694 439.175 270.557 439.094 270.886C438.691 272.666 438.654 274.508 438.985 276.303C439.316 278.097 440.009 279.806 441.02 281.324C441.218 281.634 441.709 281.364 441.512 281.056Z" fill="white"/>
<path d="M454.161 255.024C453.418 254.94 452.703 254.694 452.066 254.302C451.43 253.91 450.888 253.383 450.478 252.757C450.284 252.446 449.794 252.716 449.986 253.025C450.442 253.714 451.041 254.296 451.744 254.731C452.446 255.165 453.235 255.442 454.055 255.541C454.217 255.56 454.369 255.503 454.402 255.351C454.411 255.276 454.391 255.201 454.346 255.14C454.301 255.079 454.235 255.038 454.161 255.024Z" fill="white"/>
<path d="M472.304 166.007L465.269 128.559L451.459 110.382L441.225 117.073C442.671 124.916 453.61 139.559 453.61 139.559L463.306 168.521C463.268 168.671 463.232 168.823 463.206 168.979C463.052 169.896 463.137 170.836 463.453 171.71C463.769 172.584 464.305 173.361 465.009 173.967C465.713 174.573 466.562 174.987 467.473 175.17C468.384 175.352 469.326 175.296 470.209 175.007C471.093 174.719 471.886 174.207 472.514 173.523C473.142 172.838 473.582 172.002 473.793 171.097C474.003 170.193 473.977 169.249 473.716 168.357C473.455 167.465 472.969 166.656 472.304 166.007Z" fill="#FFB8B8"/>
<path d="M441.501 121.03L453.087 111.626L453.109 111.576C455.276 106.666 450.465 98.2454 446.047 92.0466C444.588 90.0038 442.409 88.591 439.948 88.0937C437.488 87.5965 434.931 88.052 432.794 89.3681C431.223 90.3496 429.959 91.7507 429.144 93.4131C428.328 95.0754 427.994 96.9328 428.179 98.7752L429.153 108.156L441.501 121.03Z" fill="#3F3D56"/>
<path d="M400.551 307.397L392.842 307.396L389.175 277.66L400.553 277.661L400.551 307.397Z" fill="#FFB8B8"/>
<path d="M402.517 304.879L400.347 304.879L391.876 301.434L387.335 304.878H387.334C384.768 304.878 382.308 305.898 380.493 307.712C378.679 309.527 377.659 311.988 377.659 314.554V314.868L402.517 314.869L402.517 304.879Z" fill="#2F2E41"/>
<path d="M434.758 307.397L427.049 307.396L423.382 277.66L434.76 277.661L434.758 307.397Z" fill="#FFB8B8"/>
<path d="M436.725 304.879L434.555 304.879L426.083 301.434L421.542 304.878H421.542C418.976 304.878 416.515 305.898 414.7 307.712C412.886 309.527 411.867 311.988 411.866 314.554V314.868L436.724 314.869L436.725 304.879Z" fill="#2F2E41"/>
<path d="M446.513 179.315C446.513 179.315 447.413 190.117 445.163 200.469C442.912 210.821 442.912 239.977 442.912 239.977L437.961 296.79L423.108 295.439L419.057 200.469L404.654 232.426L406.005 236.927L404.206 238.052C404.206 238.052 405.554 246.829 404.654 246.829C403.754 246.829 401.504 248.179 401.504 248.179L403.304 294.539L388.001 294.089L382.6 228.825L388.451 191.467L388.901 184.266L390.926 184.349L391.958 181.34L393.852 176.164L446.513 179.315Z" fill="#2F2E41"/>
<path d="M447.291 181.583L447.372 181.471C451.656 175.473 445.212 161.06 444.241 158.97L448.334 157.642L447.412 149.807L446.975 146.314L450.104 143.185L450.113 143.107L451.913 127.354L454.531 116.891C455.517 112.935 455.433 108.789 454.287 104.876C453.141 100.964 450.975 97.4272 448.011 94.6288L441.96 88.9237L434.606 78.043H422.748L418.682 85.7232C414.74 86.6343 411.242 88.8994 408.799 92.1241C406.355 95.3487 405.12 99.3285 405.309 103.37L406.23 123.513L402.623 148.593L402.62 153.131L398.561 157.643L399.447 162.076L396.357 163.4L394.993 169.766C394.428 170.511 390.702 175.481 390.702 176.839C390.702 177.043 390.852 177.24 391.175 177.459C393.715 179.178 407.752 182.685 413.965 180.198C420.583 177.552 446.89 181.522 447.155 181.562L447.291 181.583Z" fill="#3F3D56"/>
<path d="M344.168 314.686C344.167 314.845 344.23 314.998 344.342 315.111C344.454 315.224 344.607 315.287 344.766 315.288H486.428C486.588 315.288 486.741 315.224 486.854 315.112C486.967 314.999 487.03 314.846 487.03 314.686C487.03 314.527 486.967 314.374 486.854 314.261C486.741 314.148 486.588 314.085 486.428 314.085H344.769C344.61 314.084 344.458 314.147 344.345 314.259C344.232 314.371 344.168 314.524 344.168 314.683V314.686Z" fill="#CCCCCC"/>
<path d="M427.145 74.5303C435.819 74.5303 442.85 67.4989 442.85 58.8252C442.85 50.1515 435.819 43.1201 427.145 43.1201C418.471 43.1201 411.44 50.1515 411.44 58.8252C411.44 67.4989 418.471 74.5303 427.145 74.5303Z" fill="#FFB8B8"/>
<path d="M425.64 74.7854C428.073 74.7605 430.498 74.5279 432.891 74.0902C435.26 73.5445 440.486 69.5033 441.91 67.1159C442.968 65.3422 443.603 62.5985 443.95 60.6094C444.418 57.9768 444.328 55.2754 443.685 52.6799C443.043 50.0845 441.862 47.6529 440.221 45.5426C439.588 44.6586 438.727 43.962 437.731 43.5267C437.643 43.4948 437.552 43.4669 437.461 43.4434C436.017 43.103 434.707 42.3387 433.701 41.2487C433.505 41.028 433.294 40.8217 433.069 40.6314C431.94 39.7272 430.613 39.1031 429.196 38.8101C426.907 38.2605 423.633 38.9492 419.465 40.859C417.371 41.8186 415.047 41.5509 413.256 41.2105C413.155 41.1938 413.052 41.2036 412.957 41.2391C412.861 41.2746 412.777 41.3344 412.712 41.4127C411.972 42.1437 410.983 42.5678 409.944 42.5996C409.308 42.644 408.663 43.5429 407.885 44.7134C407.708 44.9791 407.503 45.2892 407.353 45.4784L407.323 45.1231L406.973 45.5294C406.423 46.1681 406.044 46.9355 405.87 47.7603C405.697 48.5851 405.735 49.4404 405.981 50.2466C406.227 51.0527 406.673 51.7836 407.277 52.371C407.881 52.9584 408.625 53.3833 409.438 53.6061C410.083 53.7599 410.741 53.8476 411.404 53.8676C411.806 53.8933 412.222 53.9199 412.621 53.9786C413.903 54.2068 415.103 54.7635 416.106 55.5944C417.109 56.4253 417.879 57.502 418.341 58.7193C418.45 59.0006 418.622 59.2531 418.845 59.4572C419.067 59.6614 419.333 59.8117 419.622 59.8967C419.912 59.9817 420.217 59.9989 420.514 59.9472C420.812 59.8955 421.093 59.7761 421.337 59.5984C421.743 59.2654 422.223 59.0354 422.736 58.9281C423.25 58.8208 423.782 58.8394 424.287 58.9821C424.726 59.2117 425.073 59.5852 425.269 60.0401C425.507 60.5464 425.89 60.9705 426.369 61.2583C428.004 62.0486 428.211 65.7314 427.711 68.8187C427.228 71.7947 426.18 73.9656 425.16 74.0979C424.375 74.1996 424.286 74.2579 424.233 74.3986L424.185 74.5245L424.276 74.6388C424.715 74.7851 425.18 74.8351 425.64 74.7854Z" fill="#2F2E41"/>
<path d="M253.042 155.736C270.289 155.736 284.271 141.755 284.271 124.508C284.271 107.261 270.289 93.2793 253.042 93.2793C235.795 93.2793 221.814 107.261 221.814 124.508C221.814 141.755 235.795 155.736 253.042 155.736Z" fill="#F9A825"/>
<path d="M422.023 119.86L411.722 113.272C405.162 117.81 396.297 133.793 396.297 133.793L373.861 154.521C372.927 154.681 372.051 155.085 371.322 155.691C370.593 156.298 370.036 157.086 369.709 157.976C369.381 158.865 369.293 159.826 369.455 160.76C369.616 161.695 370.021 162.57 370.629 163.299C371.236 164.027 372.024 164.582 372.915 164.909C373.805 165.236 374.766 165.322 375.7 165.16C376.634 164.997 377.509 164.591 378.237 163.983C378.964 163.375 379.519 162.585 379.844 161.695L411.113 139.912L422.023 119.86Z" fill="#FFB8B8"/>
<path d="M421.041 122.534L427.902 106.068L425.42 96.9687C424.927 95.1841 423.944 93.5731 422.582 92.3178C421.221 91.0626 419.536 90.213 417.717 89.8652C415.249 89.4103 412.7 89.9097 410.585 91.2625C408.471 92.6152 406.949 94.7204 406.328 97.1522C404.449 104.529 403.006 114.119 406.801 117.914L406.839 117.953L421.041 122.534Z" fill="#3F3D56"/>
<path d="M21.5088 305.761C8.07931 298.868 -1.66413 285.548 0.372935 271.312C12.2908 281.605 28.7686 287.664 45.9645 288.077C52.6621 288.237 60.1829 287.794 64.9296 291.705C67.8831 294.139 69.1312 297.895 69.1865 301.6C69.2417 305.305 68.226 309.022 67.217 312.689L67.4605 313.573C51.4197 314.085 34.9384 312.654 21.5088 305.761Z" fill="#F2F2F2"/>
<path d="M0.709774 271.287C5.65683 281.744 14.5275 290.609 25.7305 295.989C28.1832 297.23 30.8093 298.093 33.5198 298.549C36.2829 298.926 39.096 298.649 41.7321 297.739C44.2296 296.931 46.7003 295.854 49.3303 295.586C50.6182 295.448 51.9208 295.571 53.1601 295.947C54.3994 296.324 55.5501 296.947 56.5432 297.778C58.9035 299.737 60.2644 302.387 61.4901 305.026C62.851 307.957 64.2104 311.023 66.992 313.079C67.329 313.328 66.8334 313.809 66.4969 313.56C61.6575 309.983 61.1396 303.776 57.3393 299.509C55.566 297.518 53.0642 296.036 50.0007 296.164C47.3217 296.277 44.773 297.385 42.2506 298.222C39.6837 299.143 36.9493 299.503 34.2316 299.278C31.4948 298.949 28.8291 298.181 26.3374 297.002C20.9163 294.541 15.9311 291.216 11.5768 287.156C6.76463 282.72 2.84446 277.405 0.0271927 271.498C-0.143694 271.136 0.539999 270.928 0.709774 271.287Z" fill="white"/>
<path d="M21.9703 294.42C19.0263 297.778 13.8448 298.913 9.87042 297.09C9.47889 296.911 9.82136 296.34 10.2134 296.519C12.1152 297.331 14.2235 297.525 16.2417 297.076C18.26 296.627 20.0866 295.556 21.4648 294.015C21.7544 293.685 22.2583 294.091 21.9703 294.42Z" fill="white"/>
<path d="M40.5143 298.293C40.3139 296.275 39.6883 294.322 38.6789 292.563C37.6694 290.804 36.2988 289.279 34.6574 288.088C34.3214 287.837 34.8169 287.357 35.1524 287.607C36.8578 288.85 38.2805 290.44 39.3267 292.273C40.3728 294.106 41.0187 296.139 41.2217 298.24C41.2579 298.64 40.5502 298.691 40.5143 298.293Z" fill="white"/>
<path d="M7.58796 282.309C8.25959 281.826 8.79667 281.179 9.14826 280.43C9.49985 279.681 9.65429 278.855 9.59693 278.03C9.55505 277.63 10.2628 277.579 10.3044 277.976C10.3637 278.888 10.1922 279.8 9.80572 280.628C9.41928 281.456 8.83038 282.173 8.09344 282.713C8.02656 282.775 7.94074 282.813 7.84991 282.82C7.75908 282.827 7.6686 282.802 7.59317 282.751C7.56059 282.725 7.53426 282.691 7.51602 282.653C7.49778 282.615 7.48806 282.573 7.48757 282.531C7.48707 282.489 7.4958 282.447 7.51315 282.409C7.53049 282.37 7.55602 282.336 7.58796 282.309Z" fill="white"/>
<path d="M46.3146 242.534C46.3488 242.782 46.383 243.03 46.4225 243.281C46.901 246.608 47.6894 249.883 48.7774 253.063C48.857 253.31 48.942 253.56 49.0296 253.804C51.7918 261.508 56.1406 268.547 61.7944 274.464C64.0975 276.882 66.5937 279.108 69.2583 281.12C72.9723 283.929 77.274 286.695 79.5635 290.393C79.8066 290.775 80.0225 291.173 80.2096 291.585L68.6825 313.158C68.6295 313.198 68.5817 313.239 68.5286 313.278L68.1112 314.155C67.9635 314.06 67.8129 313.957 67.6652 313.862C67.5793 313.807 67.4959 313.747 67.4099 313.691C67.3534 313.653 67.297 313.614 67.2433 313.583C67.2244 313.57 67.2057 313.557 67.1922 313.547C67.1385 313.515 67.0928 313.48 67.0445 313.451C66.2006 312.881 65.3602 312.305 64.5233 311.723C64.5179 311.721 64.5179 311.721 64.5151 311.714C58.1523 307.259 52.1936 302.265 47.3485 296.566C47.2028 296.395 47.0516 296.222 46.9112 296.04C44.7584 293.48 42.845 290.728 41.1948 287.819C40.3062 286.237 39.5098 284.605 38.8097 282.931C37.0138 278.607 36.0148 273.994 35.8607 269.314C35.5455 259.94 38.6271 250.355 45.7636 243.085C45.9463 242.899 46.1265 242.718 46.3146 242.534Z" fill="#F2F2F2"/>
<path d="M46.5867 242.693C43.2027 254.168 43.8554 266.404 48.6349 276.949C49.6244 279.289 51.0215 281.434 52.7613 283.285C54.6299 285.109 56.9574 286.395 59.4971 287.004C61.9273 287.662 64.5203 288.078 66.6833 289.262C67.7449 289.836 68.6554 290.653 69.3405 291.647C70.0257 292.64 70.4659 293.782 70.6253 294.978C71.0712 297.896 70.2943 300.862 69.4228 303.746C68.4552 306.948 67.3939 310.264 68.0909 313.49C68.1754 313.881 67.4756 314.02 67.3913 313.63C66.1787 308.017 70.0091 302.503 70.0482 296.865C70.0665 294.235 69.1899 291.643 66.7953 290.109C64.7012 288.767 62.0279 288.336 59.5591 287.69C57.0622 287.122 54.7421 285.952 52.8015 284.282C50.9579 282.529 49.4653 280.441 48.4034 278.129C45.9629 273.033 44.4648 267.537 43.9815 261.908C43.3944 255.375 44.0555 248.79 45.9294 242.505C46.0463 242.108 46.7029 242.299 46.5867 242.693Z" fill="white"/>
<path d="M46.8711 273.608C42.3707 274.863 37.6962 273.043 35.9422 269.374C35.7694 269.013 36.4157 268.714 36.5887 269.076C38.232 272.513 42.5586 274.168 46.7656 272.995C47.2083 272.872 47.3113 273.485 46.8711 273.608Z" fill="white"/>
<path d="M58.203 286.819C59.3985 285.133 60.239 283.223 60.6736 281.203C61.1082 279.183 61.1278 277.096 60.7311 275.068C60.6483 274.677 61.348 274.537 61.4307 274.928C61.8389 277.039 61.8137 279.212 61.3567 281.313C60.8997 283.415 60.0205 285.401 58.7723 287.153C58.5274 287.51 57.9594 287.174 58.203 286.819Z" fill="white"/>
<path d="M44.273 255.679C45.1511 255.608 46.0027 255.344 46.7671 254.906C47.5316 254.468 48.1901 253.867 48.6957 253.146C48.9356 252.787 49.5034 253.123 49.265 253.48C48.7031 254.275 47.975 254.938 47.1312 255.424C46.2874 255.909 45.3482 256.205 44.3785 256.292C44.186 256.309 44.0092 256.236 43.976 256.056C43.9681 255.967 43.9945 255.878 44.0497 255.808C44.1049 255.738 44.1848 255.692 44.273 255.679Z" fill="white"/>
<path d="M86.9419 134.411L87.9537 143.794L87.3583 156.097L114.611 152.86L117.172 134.411L113.909 134.443L86.9419 134.411Z" fill="#FFB6B6"/>
<path d="M72.8069 304.761H78.7651L81.6009 281.779H72.8069V304.761Z" fill="#FFB6B6"/>
<path d="M70.8621 300.679L80.3811 300.111V304.19L89.431 310.44C89.878 310.749 90.2147 311.192 90.3918 311.706C90.5689 312.219 90.5773 312.776 90.4156 313.294C90.254 313.813 89.9308 314.266 89.4932 314.588C89.0557 314.91 88.5267 315.084 87.9834 315.084H76.6508L74.6974 311.05L73.9347 315.084H69.6619L70.8621 300.679Z" fill="#2F2E41"/>
<path d="M106.275 304.761H112.233L115.068 281.779H106.275V304.761Z" fill="#FFB6B6"/>
<path d="M104.33 300.679L113.849 300.111V304.19L122.899 310.44C123.346 310.749 123.683 311.192 123.86 311.706C124.037 312.219 124.046 312.776 123.884 313.294C123.722 313.813 123.399 314.266 122.962 314.588C122.524 314.91 121.995 315.084 121.452 315.084H110.119L108.166 311.05L107.403 315.084H103.13L104.33 300.679Z" fill="#2F2E41"/>
<path d="M70.2359 284.941H70.3007L71.4465 247.574C70.705 246.144 70.3287 244.552 70.351 242.941C70.3734 241.33 70.7938 239.75 71.5747 238.341L71.7388 238.044L71.3134 236.072C70.7671 233.538 71.0178 230.898 72.0311 228.513L73.1001 193.656C69.2811 168.905 87.4817 152.764 87.4817 152.764H114.746L120.6 172.875C124.47 210.575 123.767 247.313 117.627 282.906L117.794 282.991C118.397 283.199 118.656 284.034 118.372 284.856C118.088 285.678 117.369 286.176 116.767 285.968L102.368 285.467C101.765 285.259 101.506 284.424 101.79 283.602C102.074 282.78 102.793 282.282 103.395 282.49L104.374 282.985L102.286 246.927L102.518 240.341L102.041 232.869L99.8336 199.26L91.4795 240.59L82.9461 285.357C83.1815 285.57 83.3467 285.85 83.4199 286.159C83.4931 286.468 83.4709 286.792 83.3563 287.088C83.2416 287.384 83.0399 287.638 82.7777 287.817C82.5155 287.996 82.2051 288.092 81.8876 288.091H70.2359C70.0289 288.091 69.8238 288.051 69.6324 287.972C69.4411 287.893 69.2672 287.777 69.1206 287.63C68.9741 287.484 68.8579 287.311 68.7786 287.119C68.6993 286.928 68.6584 286.723 68.6584 286.516C68.6584 286.309 68.6993 286.104 68.7786 285.913C68.8579 285.722 68.9741 285.548 69.1206 285.402C69.2672 285.255 69.4411 285.139 69.6324 285.061C69.8238 284.982 70.0289 284.941 70.2359 284.941Z" fill="#2F2E41"/>
<path d="M91.7007 86.3975C99.7773 86.3975 106.325 79.8501 106.325 71.7734C106.325 63.6968 99.7773 57.1494 91.7007 57.1494C83.6241 57.1494 77.0767 63.6968 77.0767 71.7734C77.0767 79.8501 83.6241 86.3975 91.7007 86.3975Z" fill="#FFB6B6"/>
<path d="M27.6188 139.336C29.6741 134.564 32.4965 130.161 35.974 126.301C33.0293 130.995 31.3464 136.369 31.0882 141.903C32.1543 142.569 33.2699 143.153 34.425 143.649C37.8965 145.105 41.5978 145.936 45.3584 146.105C47.3853 139.352 50.8838 133.132 55.6022 127.893C52.2018 133.316 50.4918 139.628 50.6898 146.025C54.8844 145.663 59.0172 144.777 62.992 143.389C68.96 141.336 74.7529 138.269 78.8802 133.5C83.3469 128.339 85.5484 121.527 86.2593 114.737C86.9702 107.952 86.3018 101.103 85.628 94.3127C85.3097 91.0768 88.0046 87.3527 87.6863 84.1167H87.4741C86.0577 82.1751 84.6148 80.1857 83.9199 77.8834C83.2302 75.5864 83.4106 72.8755 84.9967 71.0665C85.8854 70.1214 87.0068 69.4262 88.2487 69.0507C88.3654 68.9021 88.4927 68.7589 88.6253 68.6157C91.0273 66.0643 93.8545 63.9498 96.9806 62.3665C94.726 64.0693 93.2194 65.995 92.5191 67.9844C94.4713 67.5547 96.4235 67.1268 98.3757 66.7006C99.0281 66.0085 99.7151 65.3499 100.434 64.7272C101.479 63.82 101.824 63.751 103.071 62.897C102.064 63.7824 101.284 64.8955 100.795 66.1436C103.304 65.5123 105.813 64.5627 107.118 62.4036C109.283 58.8333 106.71 54.0165 103.118 51.8839C100.506 50.4081 97.4956 49.7908 94.5131 50.1192C91.5306 50.4476 88.7268 51.7052 86.498 53.7141C81.3045 49.8892 73.9095 49.9529 68.1324 52.8123C64.3185 54.7844 61.0331 57.6423 58.5517 61.1463C59.9911 60.9616 61.4401 60.8606 62.8912 60.8439C60.8485 61.1429 58.9033 61.9129 57.2096 63.0932C56.4603 64.2567 55.7732 65.459 55.1513 66.6952C54.7428 67.5069 54.3573 68.3292 53.9948 69.162C51.772 74.2229 50.3238 79.6128 48.8225 84.9389C47.0719 91.1457 45.194 97.3949 41.9155 102.949C36.8889 111.395 28.9593 117.721 19.6083 120.747C18.8285 127.766 22.2555 134.63 27.6188 139.336Z" fill="#2F2E41"/>
<path d="M106.428 96.1772L103.589 95.1113L100.01 89.3242L87.2614 90.3659L84.1626 96.5712L76.6978 102.272L79.9623 119.465L85.0341 140.349L118.986 136.105L118.95 120.384C118.95 120.384 125.085 107.963 115.175 103.309L106.428 96.1772Z" fill="#F9A825"/>
<path d="M158.76 150.71C158.101 150.974 157.392 151.091 156.683 151.052C155.974 151.013 155.282 150.819 154.656 150.483C154.03 150.148 153.485 149.679 153.06 149.111C152.634 148.542 152.339 147.887 152.194 147.191L114.339 124.285L121.258 116.302L156.293 141.328C157.477 141.163 158.681 141.437 159.676 142.1C160.672 142.762 161.39 143.767 161.694 144.923C161.998 146.08 161.867 147.307 161.326 148.374C160.786 149.44 159.873 150.272 158.76 150.71Z" fill="#FFB6B6"/>
<path d="M101.725 113.423C101.725 113.423 99.9155 115.243 104.455 118.236C108.089 120.632 124.299 132.474 130.045 134.346C129.973 135.191 130.184 136.034 130.644 136.745C131.105 137.456 131.789 137.994 132.589 138.273L137.791 126.84C136.665 124.226 134.864 124.832 133.916 125.424L127.632 120.699L112.203 105.291L103.009 112.084L101.725 113.423Z" fill="#F9A825"/>
<path d="M86.5909 54.1123C84.8332 56.7061 83.6976 59.6705 83.2727 62.7749C82.8477 65.8792 83.1448 69.0397 84.1407 72.0105" fill="#FD6584"/>
<path d="M12.398 314.686C12.3977 314.765 12.4131 314.844 12.4433 314.917C12.4734 314.99 12.5177 315.056 12.5736 315.112C12.6295 315.168 12.6959 315.212 12.769 315.243C12.842 315.273 12.9204 315.288 12.9994 315.288H154.658C154.818 315.288 154.971 315.224 155.084 315.112C155.197 314.999 155.26 314.846 155.26 314.686C155.26 314.527 155.197 314.374 155.084 314.261C154.971 314.148 154.818 314.085 154.658 314.085H12.9994C12.9204 314.085 12.8421 314.1 12.769 314.13C12.6959 314.16 12.6295 314.205 12.5736 314.261C12.5177 314.316 12.4734 314.383 12.4433 314.456C12.4131 314.529 12.3977 314.607 12.398 314.686Z" fill="#CCCCCC"/>
<path d="M66.3704 177.989C66.0174 178.114 65.7281 178.373 65.566 178.71C65.4039 179.047 65.3822 179.435 65.5056 179.789L85.2418 236.672C85.3661 237.025 85.6254 237.314 85.9627 237.476C86.3001 237.638 86.6879 237.66 87.0413 237.537L201.879 197.245C202.232 197.121 202.521 196.861 202.683 196.524C202.846 196.187 202.867 195.799 202.744 195.445L183.007 138.562C182.883 138.209 182.624 137.92 182.286 137.758C181.949 137.595 181.561 137.574 181.208 137.697L66.3704 177.989Z" fill="#E6E6E6"/>
<path d="M95.437 229.327C93.1771 229.326 90.9728 228.625 89.127 227.321C87.2812 226.017 85.8845 224.174 85.1289 222.044L74.2904 191.378C73.325 188.647 73.4842 185.644 74.7328 183.03C75.9814 180.416 78.2172 178.405 80.9484 177.44L138.988 156.926C149.853 153.1 161.792 153.739 172.186 158.704C182.58 163.669 190.579 172.555 194.43 183.411C195.396 186.142 195.236 189.145 193.988 191.759C192.739 194.373 190.503 196.384 187.772 197.349L99.0664 228.702C97.9009 229.115 96.6735 229.326 95.437 229.327Z" fill="white"/>
<path d="M172.405 168.877L120.435 187.111C119.703 187.368 118.795 186.681 118.408 185.578C118.021 184.474 118.301 183.371 119.033 183.114L171.002 164.88C171.735 164.623 172.642 165.31 173.029 166.413C173.417 167.517 173.137 168.621 172.405 168.877Z" fill="#E6E6E6"/>
<path d="M176.425 180.335L124.455 198.569C123.723 198.826 122.815 198.139 122.428 197.036C122.041 195.932 122.32 194.829 123.053 194.572L175.022 176.338C175.754 176.081 176.662 176.768 177.049 177.871C177.436 178.975 177.157 180.078 176.425 180.335Z" fill="#E6E6E6"/>
<path d="M113.403 193.345C113.961 194.917 114.232 196.577 114.204 198.246C114.193 199.009 114.117 199.77 113.978 200.521C113.535 202.946 112.46 205.212 110.86 207.088C109.261 208.965 107.194 210.386 104.87 211.207C102.545 212.029 100.045 212.222 97.6212 211.768C95.1979 211.313 92.9376 210.226 91.0688 208.618C90.8801 208.457 90.6964 208.29 90.5176 208.118C88.9914 206.655 87.8163 204.866 87.0803 202.885C86.3443 200.903 86.0666 198.78 86.2681 196.676C86.4695 194.572 87.1449 192.541 88.2435 190.735C89.3421 188.929 90.8354 187.395 92.6114 186.248C94.3874 185.102 96.3999 184.373 98.4981 184.115C100.596 183.857 102.725 184.078 104.726 184.761C106.727 185.444 108.547 186.571 110.049 188.057C111.552 189.544 112.699 191.352 113.403 193.345Z" fill="#E4E4E4"/>
<path d="M100.787 200.148C102.265 200.148 103.463 198.95 103.463 197.472C103.463 195.994 102.265 194.796 100.787 194.796C99.3088 194.796 98.1106 195.994 98.1106 197.472C98.1106 198.95 99.3088 200.148 100.787 200.148Z" fill="#FD6584"/>
<path d="M90.5178 208.119C91.2049 206.524 92.0169 204.092 93.898 204.977C94.8273 205.38 96.4915 206.604 97.1673 205.181L102.459 194.104C102.559 193.898 102.699 193.713 102.872 193.562C103.045 193.41 103.246 193.295 103.464 193.222C103.681 193.15 103.912 193.121 104.141 193.139C104.37 193.156 104.593 193.22 104.797 193.325L114.204 198.246C114.193 199.01 114.117 199.771 113.978 200.522L91.069 208.619L90.5178 208.119Z" fill="#3F3D56"/>
<path d="M93.2486 175.407C92.5866 175.15 91.9892 174.75 91.4983 174.237C91.0074 173.724 90.635 173.109 90.4073 172.437C90.1797 171.764 90.1023 171.049 90.1806 170.343C90.2589 169.638 90.4911 168.958 90.8607 168.351L78.8848 125.756L89.3922 124.658L97.8601 166.873C98.8377 167.561 99.5289 168.584 99.8025 169.748C100.076 170.912 99.9134 172.136 99.345 173.188C98.7765 174.24 97.842 175.047 96.7184 175.456C95.5948 175.865 94.3602 175.848 93.2486 175.407Z" fill="#FFB6B6"/>
<path d="M77.1128 102.374C77.1128 102.374 74.5481 102.466 75.8158 107.754C76.8307 111.987 80.558 138.541 83.4722 143.836C82.8428 144.403 82.4199 145.163 82.2701 145.997C82.1204 146.83 82.2523 147.69 82.645 148.441L94.2574 143.651C95.2218 140.974 94.475 138.543 93.3781 138.327L92.0214 130.583L90.022 104.603L78.9655 102.274L77.1128 102.374Z" fill="#F9A825"/>
<path d="M181.721 214.446L165.661 215.112C165.318 215.126 164.976 215.064 164.661 214.927C164.346 214.791 164.065 214.586 163.841 214.326C163.619 214.073 163.458 213.772 163.369 213.448C163.28 213.124 163.265 212.783 163.327 212.452C164.559 205.732 164.2 198.817 162.278 192.26C162.13 191.759 162.16 191.221 162.363 190.74C162.567 190.258 162.931 189.862 163.394 189.618C169.972 186.201 176.136 186.028 181.713 189.103C182.005 189.262 182.259 189.482 182.457 189.749C182.656 190.016 182.793 190.324 182.861 190.649C184.312 197.804 184.66 205.138 183.893 212.398C183.839 212.944 183.59 213.453 183.191 213.829C182.792 214.206 182.27 214.425 181.721 214.446Z" fill="#F9A825"/>
<path d="M181.041 203.936L168.761 204.444C168.61 204.451 168.459 204.427 168.317 204.375C168.174 204.323 168.044 204.244 167.932 204.141C167.821 204.038 167.731 203.915 167.667 203.777C167.603 203.64 167.567 203.491 167.561 203.34C167.555 203.189 167.578 203.038 167.63 202.895C167.682 202.753 167.762 202.623 167.865 202.511C167.967 202.4 168.091 202.31 168.228 202.246C168.366 202.182 168.515 202.147 168.666 202.14L180.946 201.632C181.097 201.626 181.248 201.649 181.39 201.701C181.532 201.753 181.663 201.833 181.774 201.936C181.885 202.038 181.976 202.162 182.039 202.299C182.103 202.436 182.139 202.585 182.145 202.736C182.151 202.887 182.128 203.038 182.076 203.18C182.024 203.323 181.944 203.453 181.842 203.565C181.739 203.676 181.616 203.766 181.478 203.83C181.341 203.893 181.192 203.929 181.041 203.936Z" fill="white"/>
<path d="M180.874 199.896L168.595 200.404C168.289 200.417 167.991 200.308 167.766 200.101C167.541 199.893 167.408 199.605 167.395 199.3C167.382 198.994 167.492 198.696 167.699 198.472C167.906 198.247 168.194 198.113 168.499 198.1L180.779 197.592C181.084 197.579 181.382 197.688 181.607 197.895C181.832 198.103 181.966 198.39 181.978 198.696C181.991 199.001 181.882 199.299 181.675 199.524C181.468 199.749 181.18 199.883 180.874 199.896Z" fill="white"/>
<path d="M475.439 88.8173L459.502 86.727C459.162 86.6831 458.835 86.5626 458.548 86.3746C458.261 86.1866 458.019 85.936 457.843 85.6415C457.668 85.3542 457.56 85.0309 457.528 84.696C457.496 84.3611 457.54 84.0233 457.657 83.7078C460.02 77.2972 460.848 70.4221 460.075 63.6336C460.015 63.1142 460.137 62.5899 460.419 62.1501C460.702 61.7103 461.129 61.3821 461.627 61.2217C468.692 58.979 474.795 59.862 479.764 63.8454C480.025 64.0519 480.237 64.3127 480.387 64.6098C480.537 64.9069 480.62 65.233 480.63 65.5655C480.838 72.8628 479.926 80.1488 477.929 87.1704C477.783 87.6995 477.451 88.1579 476.993 88.4607C476.535 88.7635 475.983 88.8902 475.439 88.8173Z" fill="#F9A825"/>
<path d="M476.567 78.3444L464.381 76.7462C464.231 76.7265 464.086 76.6774 463.955 76.6018C463.824 76.5261 463.709 76.4254 463.617 76.3053C463.525 76.1853 463.457 76.0482 463.418 75.902C463.378 75.7558 463.368 75.6033 463.388 75.4531C463.408 75.303 463.457 75.1583 463.532 75.0271C463.608 74.896 463.709 74.781 463.829 74.6888C463.949 74.5966 464.086 74.5289 464.232 74.4896C464.378 74.4504 464.531 74.4403 464.681 74.46L476.867 76.0583C477.17 76.098 477.445 76.2566 477.631 76.4991C477.817 76.7416 477.9 77.0481 477.86 77.3513C477.82 77.6544 477.662 77.9294 477.419 78.1156C477.177 78.3019 476.87 78.3842 476.567 78.3444Z" fill="white"/>
<path d="M477.092 74.3359L464.906 72.7377C464.756 72.7182 464.611 72.6694 464.479 72.5938C464.348 72.5183 464.233 72.4176 464.14 72.2974C464.048 72.1773 463.98 72.0401 463.94 71.8938C463.901 71.7474 463.891 71.5947 463.911 71.4444C463.93 71.2941 463.98 71.1491 464.055 71.0178C464.131 70.8866 464.232 70.7715 464.352 70.6793C464.473 70.5871 464.61 70.5195 464.756 70.4804C464.903 70.4413 465.056 70.4315 465.206 70.4515L477.392 72.0498C477.542 72.0692 477.687 72.1181 477.818 72.1936C477.95 72.2691 478.065 72.3698 478.158 72.49C478.25 72.6101 478.318 72.7473 478.357 72.8937C478.397 73.0401 478.407 73.1928 478.387 73.3431C478.367 73.4934 478.318 73.6383 478.242 73.7696C478.167 73.9008 478.066 74.0159 477.945 74.1081C477.825 74.2003 477.688 74.2679 477.541 74.307C477.395 74.3461 477.242 74.3559 477.092 74.3359Z" fill="white"/>
<path d="M263.15 119.707H257.844V114.4C257.844 113.127 257.338 111.905 256.437 111.005C255.537 110.104 254.316 109.599 253.042 109.599C251.769 109.599 250.548 110.104 249.647 111.005C248.747 111.905 248.241 113.127 248.241 114.4V119.707H242.934C241.661 119.707 240.44 120.213 239.539 121.113C238.639 122.013 238.133 123.235 238.133 124.508C238.133 125.781 238.639 127.003 239.539 127.903C240.44 128.804 241.661 129.309 242.934 129.309H248.241V134.616C248.241 135.889 248.747 137.111 249.647 138.011C250.548 138.912 251.769 139.417 253.042 139.417C254.316 139.417 255.537 138.912 256.437 138.011C257.338 137.111 257.844 135.889 257.844 134.616V129.309H263.15C264.424 129.309 265.645 128.804 266.546 127.903C267.446 127.003 267.952 125.781 267.952 124.508C267.952 123.235 267.446 122.013 266.546 121.113C265.645 120.213 264.424 119.707 263.15 119.707Z" fill="white"/>
<path d="M435.005 21.4976C437.799 21.4976 440.065 19.2322 440.065 16.4378C440.065 13.6433 437.799 11.3779 435.005 11.3779C432.21 11.3779 429.945 13.6433 429.945 16.4378C429.945 19.2322 432.21 21.4976 435.005 21.4976Z" fill="#3F3D56"/>
<path d="M124.182 164.527C126.977 164.527 129.242 162.262 129.242 159.467C129.242 156.673 126.977 154.407 124.182 154.407C121.388 154.407 119.122 156.673 119.122 159.467C119.122 162.262 121.388 164.527 124.182 164.527Z" fill="#3F3D56"/>
</g>
<defs>
<clipPath id="clip0_250_540">
<rect width="500" height="315.288" fill="white"/>
</clipPath>
</defs>
</svg>
