<svg width="500" height="342" viewBox="0 0 500 342" fill="none" xmlns="http://www.w3.org/2000/svg">
<g clip-path="url(#clip0_250_673)">
<path d="M147.925 54.6601C163.019 54.6601 175.255 42.424 175.255 27.3301C175.255 12.2361 163.019 0 147.925 0C132.831 0 120.594 12.2361 120.594 27.3301C120.594 42.424 132.831 54.6601 147.925 54.6601Z" fill="#3F3D56"/>
<path d="M197.245 6.36077C184 4.57041 168.878 11.7296 165.445 24.647C164.58 22.3503 163.007 20.3881 160.953 19.0438C158.9 17.6996 156.473 17.0429 154.022 17.1687C151.57 17.2945 149.223 18.1962 147.318 19.7435C145.413 21.2909 144.049 23.4038 143.424 25.777L144.94 26.8631C173.324 33.0013 202.707 32.8684 231.034 26.4738C221.821 16.791 210.49 8.1511 197.245 6.36077Z" fill="#F0F0F0"/>
<path d="M140.441 42.8012C127.196 41.0108 112.074 48.17 108.641 61.0874C107.776 58.7907 106.203 56.8285 104.15 55.4843C102.096 54.14 99.6688 53.4833 97.2178 53.6091C94.7668 53.7349 92.4192 54.6366 90.5142 56.184C88.6092 57.7313 87.2454 59.8443 86.6199 62.2175L88.1363 63.3035C116.521 69.4417 145.903 69.3088 174.231 62.9143C165.017 53.2314 153.687 44.5915 140.441 42.8012Z" fill="#F0F0F0"/>
<path d="M241.555 115.888C237.071 108.474 231.759 100.557 223.439 98.1356C213.805 95.3317 203.907 100.902 195.512 106.398C170.406 122.836 146.228 140.65 123.089 159.758L123.115 160.046C141.129 158.804 159.143 157.562 177.158 156.319C190.173 155.422 203.636 154.4 215.138 148.243C219.502 145.907 223.757 142.786 228.703 142.568C234.847 142.298 240.205 146.59 244.416 151.073C269.322 177.595 276.53 218.154 304.472 241.456C286.852 198.002 265.814 156.015 241.555 115.888Z" fill="#F2F2F2"/>
<path d="M394.652 340.843C391.897 337.365 390.772 336.551 388.055 333.041C365.934 304.43 345.141 274.853 325.678 244.309C312.458 223.565 299.893 202.423 287.984 180.882C282.314 170.641 276.8 160.32 271.441 149.919C267.283 141.854 263.217 133.74 259.244 125.579C258.108 123.248 257.004 120.906 255.906 118.559C253.318 113.039 250.777 107.493 248.05 102.048C244.942 95.8427 241.158 89.3371 235.451 85.1679C232.854 83.1927 229.748 81.9975 226.496 81.7222C221.85 81.4221 217.563 83.3405 213.533 85.4358C184.049 100.81 156.446 120.086 131.479 142.02C106.448 164.003 84.0747 188.838 64.8148 216.02C64.2255 216.861 62.8321 216.057 63.4269 215.211C65.7688 211.899 68.1571 208.623 70.5917 205.383C100.865 165.12 137.985 130.496 180.255 103.093C187.366 98.4846 194.612 94.0921 201.99 89.9158C205.709 87.8098 209.445 85.7306 213.244 83.78C216.968 81.8669 220.923 80.1467 225.178 80.0824C239.658 79.8573 247.155 96.2553 252.305 107.289C253.923 110.762 255.561 114.223 257.219 117.675C263.483 130.777 269.989 143.76 276.735 156.623C280.899 164.564 285.154 172.46 289.5 180.309C303.026 204.75 317.402 228.697 332.628 252.149C352.799 283.214 372.809 310.657 395.788 339.707C396.42 340.511 395.289 341.658 394.652 340.843Z" fill="#E4E4E4"/>
<path d="M130.048 133.923C129.207 132.985 128.371 132.047 127.524 131.11C120.847 123.725 113.682 116.426 104.513 112.193C100.141 110.111 95.3687 109.004 90.5266 108.951C85.5215 108.967 80.629 110.28 76.0043 112.118C73.8179 112.991 71.6796 113.983 69.5737 115.038C67.1675 116.249 64.8042 117.541 62.4518 118.843C58.036 121.287 53.6775 123.838 49.3763 126.496C40.8182 131.785 32.528 137.478 24.5059 143.574C20.3473 146.736 16.2745 150.001 12.2876 153.37C8.5793 156.5 4.94604 159.713 1.38778 163.011C0.626869 163.713 -0.509246 162.577 0.251645 161.875C1.18944 161.001 2.13795 160.133 3.08647 159.276C5.76589 156.853 8.48822 154.478 11.2535 152.148C16.296 147.893 21.469 143.803 26.7727 139.877C35.02 133.768 43.5512 128.073 52.3663 122.793C56.7714 120.156 61.2371 117.63 65.7634 115.215C67.1301 114.486 68.5127 113.774 69.9113 113.098C73.0848 111.498 76.3822 110.155 79.7715 109.085C84.5726 107.532 89.6522 107.033 94.6637 107.622C99.5025 108.326 104.165 109.938 108.404 112.375C117.407 117.407 124.389 125.188 131.184 132.781C131.87 133.553 130.739 134.695 130.048 133.923Z" fill="#E4E4E4"/>
<path d="M314.512 210.446L336.085 202.555L346.796 198.638C350.284 197.362 353.764 195.909 357.37 194.996C360.559 194.188 363.798 194.056 366.942 195.118C369.715 196.144 372.254 197.718 374.407 199.745C376.607 201.771 378.653 203.957 380.53 206.284C382.862 209.087 385.16 211.919 387.468 214.741C396.992 226.39 406.455 238.089 415.856 249.839C425.256 261.589 434.593 273.388 443.868 285.237C453.165 297.116 462.398 309.044 471.567 321.022C472.69 322.489 473.813 323.957 474.934 325.426C475.554 326.237 476.95 325.437 476.322 324.614C467.085 312.516 457.784 300.468 448.418 288.468C439.03 276.441 429.576 264.464 420.058 252.538C410.539 240.612 400.957 228.739 391.31 216.917C388.906 213.971 386.499 211.029 384.088 208.091C382.054 205.612 380.043 203.106 377.812 200.799C373.717 196.563 368.601 192.821 362.476 192.719C358.876 192.659 355.391 193.802 352.045 195.012C348.439 196.317 344.841 197.646 341.239 198.963L319.515 206.909L314.084 208.895C313.121 209.248 313.537 210.802 314.512 210.446Z" fill="#E4E4E4"/>
<path d="M101.674 121.484C90.7113 115.85 76.6718 116.953 66.5977 123.993C85.8133 127.308 104.819 131.744 123.516 137.277C115.752 132.727 109.678 125.598 101.674 121.484Z" fill="#F2F2F2"/>
<path d="M66.4899 123.974L64.3794 125.689C65.0933 125.089 65.8354 124.526 66.5978 123.993C66.5618 123.987 66.5259 123.98 66.4899 123.974Z" fill="#F2F2F2"/>
<path d="M373.594 210.524C371.471 207.939 369.175 205.233 365.998 204.183L363.033 204.3C385.607 244.189 416.096 279.045 452.627 306.726C426.282 274.659 399.938 242.591 373.594 210.524Z" fill="#F2F2F2"/>
<path d="M152.753 311.492C153.962 301.769 159.987 292.189 169.26 289.025C165.603 299.033 165.604 310.011 169.262 320.018C170.687 323.872 172.673 328.01 171.333 331.894C170.499 334.311 168.459 336.161 166.179 337.317C163.898 338.473 161.368 339.024 158.868 339.564L158.377 339.971C154.409 331.013 151.544 321.214 152.753 311.492Z" fill="#F0F0F0"/>
<path d="M169.352 289.209C163.952 295.26 160.596 302.858 159.76 310.924C159.55 312.657 159.613 314.413 159.949 316.127C160.331 317.785 161.149 319.311 162.32 320.547C163.388 321.72 164.616 322.797 165.381 324.21C165.761 324.939 165.983 325.74 166.033 326.561C166.082 327.382 165.957 328.204 165.666 328.974C164.991 330.909 163.661 332.487 162.307 333.984C160.803 335.647 159.215 337.351 158.575 339.555C158.498 339.822 158.088 339.686 158.165 339.42C159.278 335.584 163.001 333.406 164.776 329.951C165.605 328.339 165.953 326.468 165.176 324.766C164.497 323.278 163.231 322.167 162.139 320.988C160.979 319.799 160.128 318.345 159.66 316.752C159.238 315.062 159.107 313.311 159.272 311.576C159.581 307.665 160.504 303.826 162.006 300.201C163.697 296.054 166.085 292.227 169.066 288.886C169.251 288.679 169.536 289.004 169.352 289.209Z" fill="white"/>
<path d="M159.876 308.311C158.542 307.987 157.366 307.199 156.559 306.089C155.752 304.978 155.366 303.616 155.47 302.247C155.492 301.97 155.923 301.991 155.901 302.269C155.802 303.543 156.162 304.812 156.916 305.845C157.669 306.877 158.767 307.607 160.012 307.901C160.282 307.965 160.145 308.375 159.876 308.311Z" fill="white"/>
<path d="M161.699 320.023C164.109 318.584 165.888 316.289 166.682 313.597C166.76 313.33 167.17 313.466 167.092 313.732C166.261 316.532 164.405 318.916 161.894 320.408C161.654 320.55 161.461 320.164 161.699 320.023Z" fill="white"/>
<path d="M164.097 296.463C164.587 296.696 165.128 296.804 165.67 296.776C166.212 296.748 166.738 296.587 167.202 296.305C167.44 296.16 167.632 296.547 167.396 296.691C166.882 297 166.3 297.177 165.702 297.209C165.103 297.241 164.506 297.125 163.962 296.873C163.908 296.854 163.865 296.815 163.839 296.764C163.814 296.713 163.808 296.655 163.824 296.6C163.843 296.546 163.881 296.501 163.932 296.476C163.983 296.45 164.043 296.445 164.097 296.463Z" fill="white"/>
<path d="M197.524 306.391C197.378 306.486 197.232 306.581 197.086 306.679C195.134 307.963 193.288 309.404 191.569 310.987C191.434 311.107 191.299 311.231 191.168 311.355C187.066 315.213 183.716 319.799 181.288 324.879C180.324 326.902 179.515 328.995 178.868 331.14C177.975 334.103 177.243 337.387 175.475 339.811C175.293 340.065 175.096 340.309 174.885 340.539H158.911C158.875 340.521 158.838 340.507 158.802 340.488L158.164 340.518C158.19 340.405 158.219 340.288 158.244 340.175C158.259 340.109 158.277 340.044 158.292 339.978C158.303 339.934 158.314 339.891 158.321 339.851C158.324 339.836 158.328 339.821 158.332 339.811C158.339 339.77 158.35 339.734 158.357 339.698C158.518 339.045 158.683 338.393 158.853 337.741C158.853 337.737 158.853 337.737 158.856 337.733C160.105 332.75 161.94 327.932 164.323 323.381C164.396 323.247 164.469 323.108 164.549 322.973C165.653 320.959 166.919 319.038 168.336 317.23C169.115 316.242 169.943 315.295 170.818 314.391C173.082 312.06 175.699 310.099 178.573 308.581C184.302 305.557 190.935 304.398 197.057 306.245C197.214 306.293 197.367 306.34 197.524 306.391Z" fill="#F0F0F0"/>
<path d="M197.488 306.594C189.533 308.174 182.279 312.22 176.755 318.158C175.544 319.415 174.537 320.855 173.774 322.425C173.08 323.979 172.814 325.69 173.005 327.381C173.152 328.962 173.484 330.561 173.244 332.15C173.109 332.961 172.804 333.734 172.349 334.419C171.894 335.104 171.299 335.685 170.604 336.125C168.899 337.264 166.888 337.723 164.904 338.103C162.703 338.525 160.409 338.929 158.571 340.304C158.349 340.471 158.103 340.116 158.326 339.949C161.523 337.557 165.807 338.059 169.305 336.37C170.937 335.581 172.341 334.296 172.745 332.47C173.099 330.873 172.757 329.224 172.595 327.625C172.385 325.978 172.581 324.304 173.166 322.751C173.847 321.146 174.796 319.67 175.973 318.384C178.575 315.447 181.623 312.938 185.004 310.947C188.851 308.655 193.062 307.037 197.455 306.164C197.726 306.11 197.758 306.541 197.488 306.594Z" fill="white"/>
<path d="M178.422 316.141C177.551 315.079 177.087 313.742 177.111 312.369C177.135 310.996 177.647 309.677 178.554 308.646C178.739 308.438 179.07 308.715 178.886 308.923C178.039 309.881 177.563 311.11 177.543 312.389C177.523 313.667 177.96 314.911 178.777 315.895C178.954 316.109 178.598 316.353 178.422 316.141Z" fill="white"/>
<path d="M172.826 326.59C175.616 326.892 178.418 326.131 180.673 324.459C180.896 324.293 181.142 324.648 180.919 324.814C178.569 326.55 175.652 327.336 172.749 327.015C172.472 326.984 172.551 326.559 172.826 326.59Z" fill="white"/>
<path d="M188.925 309.222C189.176 309.703 189.543 310.115 189.992 310.419C190.441 310.723 190.959 310.911 191.499 310.966C191.776 310.993 191.697 311.418 191.422 311.391C190.826 311.328 190.254 311.119 189.757 310.784C189.26 310.449 188.852 309.997 188.57 309.468C188.539 309.421 188.528 309.363 188.538 309.307C188.548 309.251 188.579 309.202 188.624 309.168C188.672 309.136 188.73 309.123 188.786 309.133C188.842 309.144 188.892 309.176 188.925 309.222Z" fill="white"/>
<path d="M268.891 258.662C261.056 241.332 261.345 219.365 273.504 204.741C277.572 225.02 288.682 243.206 304.868 256.082C311.128 261.025 318.606 265.871 320.316 273.662C321.38 278.509 319.871 283.637 317.264 287.86C314.656 292.083 311.021 295.556 307.427 298.98L307.024 300.151C291.387 289.325 276.726 275.992 268.891 258.662Z" fill="#F0F0F0"/>
<path d="M273.843 204.953C271.019 220.44 273.147 236.423 279.925 250.631C281.33 253.716 283.212 256.56 285.502 259.059C287.812 261.42 290.712 263.121 293.901 263.983C296.858 264.846 299.984 265.387 302.679 266.954C304.048 267.777 305.226 268.88 306.138 270.19C307.05 271.5 307.675 272.988 307.972 274.557C308.812 278.446 308.205 282.406 307.477 286.257C306.668 290.534 305.761 294.962 306.932 299.261C307.074 299.782 306.258 299.972 306.116 299.452C304.078 291.973 308.041 284.596 307.487 277.077C307.229 273.568 305.911 270.116 302.903 268.083C300.272 266.306 297.05 265.745 294.048 264.897C290.924 264.102 288.043 262.554 285.656 260.388C283.246 258.014 281.257 255.247 279.775 252.206C276.33 245.413 273.974 238.12 272.794 230.595C271.4 222.014 271.483 213.258 273.042 204.705C273.138 204.176 273.939 204.427 273.843 204.953Z" fill="white"/>
<path d="M277.473 246.184C274.935 246.997 272.19 246.882 269.729 245.859C267.268 244.835 265.251 242.97 264.038 240.597C263.794 240.116 264.53 239.714 264.774 240.196C265.9 242.408 267.779 244.145 270.073 245.094C272.366 246.042 274.924 246.139 277.283 245.368C277.796 245.2 277.983 246.018 277.473 246.184Z" fill="white"/>
<path d="M292.344 263.742C294.88 258.92 295.506 253.319 294.096 248.055C293.956 247.534 294.772 247.344 294.912 247.865C296.369 253.345 295.706 259.172 293.056 264.185C292.803 264.662 292.092 264.217 292.344 263.742Z" fill="white"/>
<path d="M272.477 222.287C273.525 222.176 274.529 221.808 275.399 221.214C276.269 220.62 276.978 219.819 277.462 218.883C277.709 218.403 278.419 218.848 278.174 219.326C277.634 220.357 276.85 221.241 275.89 221.899C274.931 222.557 273.824 222.971 272.668 223.103C272.56 223.124 272.448 223.104 272.354 223.046C272.261 222.988 272.193 222.896 272.164 222.79C272.14 222.682 272.159 222.568 272.217 222.474C272.276 222.38 272.369 222.312 272.477 222.287Z" fill="white"/>
<path d="M337.898 204.911C337.753 205.216 337.607 205.52 337.465 205.831C335.529 209.934 333.93 214.188 332.683 218.55C332.582 218.886 332.484 219.227 332.392 219.565C329.5 230.107 328.59 241.094 329.709 251.967C330.158 256.294 330.936 260.58 332.035 264.788C333.554 270.6 335.663 276.781 335.187 282.585C335.145 283.191 335.064 283.794 334.947 284.39L308.485 300.553C308.406 300.559 308.331 300.572 308.252 300.579L307.225 301.272C307.153 301.059 307.083 300.837 307.011 300.623C306.969 300.5 306.933 300.373 306.891 300.25C306.864 300.166 306.838 300.082 306.81 300.009C306.801 299.981 306.793 299.953 306.787 299.931C306.759 299.858 306.74 299.786 306.715 299.718C306.321 298.475 305.935 297.227 305.556 295.975C305.553 295.969 305.553 295.969 305.555 295.959C302.696 286.406 300.61 276.53 300.089 266.652C300.073 266.355 300.054 266.052 300.05 265.747C299.84 261.293 299.995 256.83 300.512 252.401C300.803 249.977 301.216 247.569 301.751 245.186C303.143 239.033 305.495 233.138 308.72 227.715C315.15 216.907 324.966 208.276 336.978 205.142C337.286 205.062 337.587 204.985 337.898 204.911Z" fill="#F0F0F0"/>
<path d="M338.044 205.283C326.465 215.949 318.542 229.991 315.399 245.417C314.663 248.725 314.454 252.129 314.778 255.503C315.2 258.78 316.492 261.883 318.519 264.492C320.361 266.962 322.53 269.275 323.739 272.149C324.336 273.63 324.614 275.22 324.553 276.815C324.492 278.411 324.095 279.975 323.387 281.406C321.717 285.018 318.848 287.814 315.948 290.45C312.728 293.378 309.337 296.368 307.684 300.505C307.484 301.007 306.718 300.667 306.918 300.166C309.793 292.967 317.398 289.464 321.483 283.126C323.389 280.169 324.416 276.62 323.238 273.185C322.208 270.182 319.972 267.795 318.086 265.31C316.071 262.794 314.703 259.824 314.1 256.657C313.605 253.311 313.683 249.904 314.331 246.584C315.67 239.086 318.18 231.844 321.768 225.125C325.821 217.435 331.16 210.494 337.553 204.603C337.949 204.239 338.437 204.921 338.044 205.283Z" fill="white"/>
<path d="M316.119 240.39C313.602 239.511 311.48 237.767 310.131 235.468C308.782 233.169 308.294 230.465 308.755 227.84C308.85 227.309 309.679 227.432 309.584 227.963C309.151 230.407 309.606 232.926 310.866 235.064C312.127 237.202 314.11 238.819 316.458 239.624C316.968 239.799 316.626 240.565 316.119 240.39Z" fill="white"/>
<path d="M317.421 263.363C322.349 261.039 326.221 256.944 328.264 251.892C328.466 251.392 329.232 251.732 329.03 252.232C326.895 257.484 322.857 261.738 317.723 264.144C317.233 264.373 316.934 263.59 317.421 263.363Z" fill="white"/>
<path d="M326.518 218.301C327.42 218.844 328.444 219.154 329.496 219.203C330.549 219.253 331.597 219.04 332.547 218.585C333.033 218.35 333.332 219.133 332.849 219.367C331.797 219.865 330.639 220.099 329.476 220.046C328.314 219.994 327.181 219.658 326.178 219.067C326.079 219.02 326.002 218.936 325.962 218.833C325.923 218.73 325.923 218.616 325.965 218.514C326.01 218.413 326.094 218.334 326.197 218.294C326.301 218.254 326.416 218.256 326.518 218.301Z" fill="white"/>
<path d="M388.791 278.73L418.556 256.132L433.064 270.64L384.575 303.822L388.791 278.73Z" fill="#3F3D56"/>
<path d="M361.03 340.953H259.211L262.782 329.383C284.915 321.37 272.483 304.149 293.537 293.622C345.032 267.874 364.968 191.04 357.428 160.667L391.174 159.24C391.174 159.24 437.777 291.588 361.03 340.953Z" fill="#3F3D56"/>
<path d="M447.954 286.562C444.913 289.237 441.022 290.746 436.972 290.822C432.923 290.897 428.978 289.535 425.839 286.976L425.773 286.921L425.771 286.836C425.734 285.419 425.513 284.012 425.113 282.651C425.093 283.631 424.95 284.604 424.688 285.548L424.603 285.866L424.374 285.63C424.177 285.426 423.985 285.219 423.806 285.015C422.75 283.816 421.865 282.477 421.177 281.035C417.885 274.263 413.114 268.317 407.218 263.635C406.165 262.778 405.185 261.836 404.289 260.817C400.503 256.509 398.374 250.995 398.283 245.26C398.192 239.526 400.145 233.947 403.793 229.522C407.441 225.096 412.544 222.114 418.191 221.108C423.837 220.103 429.656 221.14 434.607 224.034L434.758 224.123L434.68 224.279C434.107 225.469 433.349 226.561 432.436 227.515C433.692 226.837 434.853 225.998 435.892 225.019L436.001 224.915L436.126 225.001C437.752 226.126 439.235 227.446 440.541 228.931L440.682 229.092C441.678 230.233 442.904 231.15 444.28 231.784C445.655 232.419 447.148 232.757 448.663 232.775C451.133 232.817 453.566 233.393 455.793 234.465C458.019 235.536 459.988 237.077 461.562 238.982C463.136 240.887 464.279 243.11 464.912 245.499C465.546 247.887 465.654 250.385 465.229 252.819L465.21 252.932L465.1 252.966C463.18 253.625 461.144 253.879 459.121 253.712C460.81 254.448 462.61 254.898 464.447 255.046L464.684 255.064L464.609 255.29C463.652 258.164 461.949 260.731 459.674 262.73L459.609 262.787C459.586 262.807 459.563 262.827 459.54 262.848C457.845 264.307 456.459 266.09 455.462 268.093C454.465 270.095 453.878 272.277 453.736 274.509C453.623 276.802 453.054 279.049 452.061 281.119C451.068 283.189 449.672 285.039 447.954 286.562Z" fill="#F9A825"/>
<path opacity="0.15" d="M451.069 281.063C451.038 281.679 450.974 282.293 450.877 282.902C452.544 280.342 453.504 277.385 453.657 274.333C453.68 273.866 453.729 273.401 453.795 272.938C452.175 275.353 451.233 278.159 451.069 281.063Z" fill="black"/>
<path opacity="0.15" d="M456.454 260.266C457.812 260.854 459.244 261.259 460.71 261.469C461.274 260.873 461.796 260.237 462.269 259.566C460.398 260.192 458.419 260.43 456.454 260.266Z" fill="black"/>
<path opacity="0.15" d="M462.725 254.646C462.877 256.125 462.836 257.618 462.604 259.086C463.415 257.852 464.063 256.517 464.529 255.115L464.605 254.889L464.367 254.87C463.817 254.823 463.269 254.748 462.725 254.646Z" fill="black"/>
<path opacity="0.15" d="M461.142 238.407C459.567 236.619 457.636 235.18 455.474 234.18C453.312 233.181 450.965 232.642 448.583 232.6C447.069 232.581 445.575 232.243 444.2 231.609C442.825 230.974 441.599 230.057 440.602 228.917L440.461 228.755C439.155 227.27 437.673 225.95 436.046 224.825L435.922 224.74L435.812 224.843C434.774 225.822 433.612 226.661 432.357 227.34C433.27 226.385 434.027 225.293 434.601 224.103L434.679 223.947L434.528 223.859C431.246 221.938 427.556 220.82 423.759 220.596C419.963 220.373 416.167 221.05 412.682 222.573C409.197 224.096 406.121 226.421 403.706 229.359C401.291 232.296 399.604 235.764 398.784 239.477C400.364 236.703 402.478 234.269 405.005 232.317C407.532 230.366 410.422 228.935 413.505 228.108C416.589 227.281 419.807 227.075 422.971 227.501C426.135 227.926 429.184 228.976 431.94 230.588L432.091 230.676L432.012 230.832C431.439 232.023 430.682 233.115 429.768 234.069C431.024 233.391 432.186 232.551 433.224 231.572L433.334 231.469L433.458 231.555C435.085 232.68 436.567 234 437.873 235.485L438.014 235.646C439.011 236.786 440.237 237.704 441.612 238.338C442.987 238.973 444.48 239.31 445.995 239.329C449.955 239.396 453.769 240.834 456.787 243.399C459.804 245.964 461.839 249.495 462.544 253.393C463.381 253.243 464.208 253.041 465.021 252.79L465.13 252.757L465.15 252.644C465.594 250.122 465.465 247.532 464.771 245.068C464.077 242.603 462.836 240.326 461.142 238.407Z" fill="black"/>
<path d="M497.166 167.952C497.165 180.992 492.539 193.61 484.111 203.561C475.683 213.512 464 220.151 451.138 222.3L450.866 222.344L450.655 222.168C447.148 219.244 443.277 216.787 439.139 214.858C441.464 216.99 443.513 219.405 445.238 222.047L445.824 222.928L444.767 222.979C443.855 223.024 442.948 223.046 442.073 223.046C436.928 223.05 431.808 222.34 426.859 220.936C404.378 214.54 380.236 213.446 355.105 217.685C350.796 218.41 346.434 218.774 342.064 218.773C299.214 218.773 264.352 183.905 264.352 141.046C264.329 124.705 269.465 108.774 279.027 95.523C288.59 82.2722 302.091 72.3781 317.607 67.251L318.141 67.0741L318.352 67.5955C320.01 71.5124 321.041 75.6661 321.406 79.9039C322.436 75.4254 322.878 70.8316 322.719 66.2389L322.702 65.754L323.173 65.6358C329.352 64.0959 335.696 63.3177 342.064 63.3187L342.753 63.3215C347.63 63.336 352.455 62.3226 356.913 60.3473C361.372 58.3721 365.364 55.4793 368.63 51.8576C373.985 45.9722 380.551 41.3167 387.877 38.2113C395.203 35.1059 403.115 33.6245 411.068 33.8687C419.021 34.113 426.827 36.0773 433.948 39.6265C441.07 43.1756 447.338 48.2254 452.322 54.4283L452.554 54.7156L452.401 55.0522C449.182 62.1469 445.675 67.3154 441.489 71.0952C446.86 68.5753 451.777 65.1827 456.04 61.0553L456.59 60.5216L456.976 61.1842C461.888 69.6078 464.474 79.1849 464.47 88.936L464.47 89.2139C464.469 89.312 464.469 89.4109 464.469 89.509C464.469 104.425 470.237 118.563 480.321 128.341C485.624 133.489 489.846 139.645 492.739 146.447C495.632 153.249 497.137 160.56 497.166 167.952Z" fill="#F9A825"/>
<g opacity="0.15">
<path d="M429.811 37.7539C427.912 40.9064 425.575 43.7734 422.87 46.2694C426.743 44.4511 430.384 42.1753 433.716 39.4907C432.438 38.8612 431.136 38.2822 429.811 37.7539Z" fill="black"/>
<path d="M461.702 103.515C464.698 106.423 467.355 109.66 469.623 113.166C466.21 105.747 464.452 97.675 464.469 89.5089C464.469 89.4107 464.469 89.3119 464.47 89.2138L464.471 88.9359C464.474 79.1848 461.888 69.6077 456.976 61.1841L456.59 60.5215L456.04 61.0551C453.002 63.991 449.63 66.5592 445.992 68.7065C446.929 82.1197 452.529 94.6211 461.702 103.515Z" fill="black"/>
<path d="M445.851 64.1105L445.851 64.3884C445.85 64.4865 445.85 64.5854 445.85 64.6835C445.85 65.2243 445.86 65.7637 445.875 66.3023C448.469 62.8118 450.659 59.0376 452.401 55.0524L452.554 54.7158L452.322 54.4285C449.415 50.8117 446.067 47.5733 442.355 44.7891C444.666 50.9687 445.85 57.5128 445.851 64.1105Z" fill="black"/>
<path d="M480.321 128.341C477.67 125.763 475.315 122.897 473.299 119.798C476.91 127.491 478.69 135.915 478.501 144.411C478.311 152.907 476.157 161.243 472.207 168.768C468.257 176.292 462.618 182.799 455.732 187.779C448.846 192.76 440.901 196.078 432.519 197.474L432.246 197.518L432.036 197.343C428.529 194.418 424.658 191.961 420.52 190.033C422.845 192.164 424.894 194.579 426.619 197.221L427.205 198.103L426.148 198.154C425.235 198.198 424.329 198.22 423.453 198.22C418.309 198.225 413.189 197.515 408.24 196.111C385.758 189.715 361.617 188.621 336.486 192.86C332.176 193.584 327.814 193.948 323.445 193.948C304.398 193.962 286.015 186.952 271.814 174.259C278.113 187.564 288.058 198.81 300.493 206.689C312.928 214.569 327.343 218.759 342.064 218.773C346.434 218.774 350.796 218.41 355.105 217.685C380.236 213.447 404.378 214.54 426.859 220.937C431.808 222.341 436.928 223.05 442.073 223.046C442.948 223.046 443.855 223.024 444.767 222.979L445.825 222.929L445.238 222.047C443.514 219.405 441.465 216.99 439.139 214.858C443.278 216.787 447.149 219.244 450.655 222.169L450.866 222.344L451.138 222.3C461.204 220.625 470.606 216.186 478.296 209.479C485.986 202.772 491.661 194.06 494.688 184.315C497.715 174.57 497.974 164.175 495.437 154.292C492.9 144.408 487.667 135.423 480.321 128.341Z" fill="black"/>
</g>
<path d="M221.037 154.009C218.072 150.814 216.534 146.019 218.111 141.955C220.473 146.066 224.212 149.208 228.668 150.827C230.389 151.445 232.367 151.953 233.306 153.522C233.849 154.536 233.982 155.72 233.678 156.83C233.371 157.927 232.925 158.98 232.35 159.963L232.348 160.247C228.161 159.034 224.003 157.205 221.037 154.009Z" fill="#6C63FF"/>
<path d="M368.337 246.692C365.371 243.497 363.833 238.702 365.41 234.638C367.772 238.748 371.512 241.891 375.967 243.51C377.688 244.128 379.666 244.636 380.606 246.205C381.149 247.219 381.282 248.403 380.977 249.513C380.67 250.609 380.224 251.662 379.65 252.646L379.647 252.93C375.46 251.717 371.302 249.887 368.337 246.692Z" fill="#F9A825"/>
<path d="M437.794 306.512C435.722 302.676 435.433 297.649 437.977 294.108C439.235 298.679 442.069 302.658 445.978 305.34C447.489 306.369 449.277 307.356 449.794 309.11C450.066 310.227 449.899 311.407 449.326 312.405C448.755 313.39 448.059 314.298 447.257 315.107L447.184 315.381C443.433 313.159 439.866 310.347 437.794 306.512Z" fill="#F9A825"/>
<path d="M487.859 232.448C485.788 228.612 485.498 223.585 488.042 220.045C489.3 224.616 492.134 228.594 496.043 231.276C497.555 232.305 499.343 233.292 499.86 235.046C500.132 236.164 499.964 237.344 499.392 238.342C498.82 239.327 498.125 240.235 497.322 241.043L497.249 241.318C493.499 239.095 489.931 236.284 487.859 232.448Z" fill="#F9A825"/>
<path d="M160.573 260.998C158.502 257.162 158.212 252.135 160.756 248.595C162.014 253.165 164.848 257.144 168.757 259.826C170.269 260.855 172.057 261.842 172.574 263.596C172.846 264.714 172.678 265.894 172.105 266.891C171.534 267.877 170.839 268.785 170.036 269.593L169.963 269.867C166.213 267.645 162.645 264.834 160.573 260.998Z" fill="#E6E6E6"/>
<path d="M347.642 297.731C349.441 283.263 358.407 269.009 372.205 264.301C366.764 279.192 366.765 295.527 372.208 310.417C374.328 316.152 377.284 322.31 375.289 328.09C374.048 331.686 371.013 334.438 367.62 336.158C364.227 337.879 360.461 338.699 356.742 339.503L356.01 340.108C350.107 326.778 345.843 312.198 347.642 297.731Z" fill="#E6E6E6"/>
<path d="M372.342 264.574C364.307 273.576 359.313 284.882 358.069 296.885C357.756 299.464 357.85 302.077 358.35 304.626C358.918 307.094 360.135 309.365 361.877 311.203C363.467 312.95 365.295 314.552 366.432 316.655C366.999 317.74 367.329 318.932 367.402 320.153C367.475 321.375 367.289 322.598 366.856 323.743C365.852 326.623 363.873 328.97 361.858 331.199C359.62 333.673 357.257 336.208 356.306 339.488C356.191 339.885 355.581 339.683 355.696 339.287C357.351 333.58 362.891 330.338 365.533 325.198C366.766 322.799 367.283 320.014 366.127 317.482C365.117 315.268 363.233 313.614 361.608 311.86C359.882 310.092 358.616 307.928 357.92 305.558C357.292 303.042 357.096 300.437 357.342 297.856C357.802 292.035 359.175 286.323 361.41 280.929C363.926 274.758 367.48 269.064 371.917 264.092C372.191 263.784 372.615 264.268 372.342 264.574Z" fill="white"/>
<path d="M358.242 292.997C356.257 292.514 354.507 291.342 353.306 289.69C352.105 288.037 351.531 286.011 351.686 283.973C351.718 283.561 352.36 283.593 352.328 284.005C352.18 285.902 352.715 287.789 353.837 289.326C354.958 290.863 356.592 291.948 358.444 292.386C358.846 292.482 358.642 293.092 358.242 292.997Z" fill="white"/>
<path d="M360.955 310.424C364.541 308.283 367.188 304.869 368.368 300.863C368.485 300.466 369.095 300.668 368.979 301.064C367.742 305.231 364.98 308.778 361.244 310.998C360.887 311.21 360.6 310.635 360.955 310.424Z" fill="white"/>
<path d="M364.522 275.367C365.252 275.714 366.056 275.874 366.862 275.833C367.669 275.792 368.452 275.551 369.143 275.133C369.496 274.917 369.783 275.492 369.432 275.706C368.667 276.165 367.801 276.43 366.91 276.477C366.019 276.525 365.13 276.353 364.321 275.977C364.242 275.948 364.176 275.89 364.139 275.815C364.101 275.739 364.093 275.652 364.117 275.571C364.144 275.491 364.202 275.424 364.277 275.386C364.353 275.348 364.441 275.341 364.522 275.367Z" fill="white"/>
<path d="M414.261 290.141C414.044 290.282 413.827 290.423 413.61 290.569C410.704 292.48 407.958 294.624 405.4 296.979C405.199 297.158 404.998 297.342 404.803 297.527C398.699 303.267 393.714 310.091 390.102 317.651C388.667 320.661 387.463 323.775 386.501 326.968C385.172 331.377 384.082 336.263 381.452 339.869C381.182 340.248 380.888 340.61 380.574 340.953H356.805C356.751 340.926 356.697 340.905 356.642 340.877L355.693 340.921C355.731 340.753 355.775 340.579 355.813 340.411C355.834 340.314 355.861 340.216 355.883 340.118C355.899 340.053 355.916 339.988 355.927 339.928C355.932 339.907 355.937 339.885 355.943 339.869C355.954 339.809 355.97 339.755 355.981 339.701C356.219 338.73 356.465 337.759 356.718 336.789C356.718 336.783 356.718 336.783 356.724 336.778C358.671 329.386 361.252 322.093 364.858 315.422C364.967 315.222 365.075 315.016 365.194 314.815C366.836 311.817 368.721 308.959 370.829 306.269C371.988 304.799 373.22 303.389 374.522 302.044C377.891 298.575 381.786 295.658 386.062 293.4C394.587 288.899 404.456 287.174 413.567 289.924C413.8 289.994 414.028 290.065 414.261 290.141Z" fill="#E6E6E6"/>
<path d="M414.208 290.443C402.372 292.793 391.577 298.814 383.358 307.648C381.555 309.519 380.058 311.662 378.922 313.999C377.889 316.311 377.494 318.857 377.778 321.373C377.996 323.725 378.491 326.105 378.133 328.469C377.932 329.676 377.478 330.827 376.801 331.846C376.124 332.865 375.239 333.73 374.204 334.383C371.668 336.079 368.675 336.761 365.724 337.327C362.448 337.956 359.035 338.557 356.3 340.603C355.969 340.851 355.604 340.322 355.934 340.075C360.692 336.514 367.067 337.261 372.271 334.748C374.7 333.575 376.789 331.663 377.391 328.946C377.917 326.57 377.409 324.115 377.168 321.736C376.855 319.285 377.146 316.795 378.017 314.483C379.031 312.096 380.443 309.899 382.193 307.986C386.065 303.615 390.6 299.881 395.632 296.92C401.357 293.508 407.622 291.101 414.158 289.802C414.563 289.722 414.61 290.363 414.208 290.443Z" fill="white"/>
<path d="M385.837 304.648C384.542 303.068 383.851 301.079 383.887 299.036C383.923 296.993 384.685 295.03 386.035 293.496C386.309 293.187 386.803 293.599 386.528 293.908C385.268 295.334 384.559 297.163 384.53 299.066C384.5 300.968 385.151 302.818 386.366 304.283C386.629 304.601 386.1 304.965 385.837 304.648Z" fill="white"/>
<path d="M377.51 320.196C381.663 320.645 385.832 319.513 389.187 317.025C389.519 316.778 389.884 317.307 389.552 317.553C386.057 320.136 381.716 321.305 377.396 320.828C376.984 320.782 377.101 320.15 377.51 320.196Z" fill="white"/>
<path d="M401.466 294.353C401.84 295.068 402.386 295.68 403.054 296.133C403.723 296.586 404.493 296.866 405.297 296.947C405.709 296.988 405.591 297.62 405.182 297.579C404.295 297.485 403.444 297.175 402.704 296.677C401.965 296.178 401.358 295.506 400.938 294.718C400.892 294.648 400.875 294.562 400.89 294.479C400.905 294.396 400.952 294.322 401.019 294.271C401.09 294.223 401.176 294.205 401.26 294.22C401.343 294.235 401.418 294.283 401.466 294.353Z" fill="white"/>
<path d="M226.996 299.714L207.269 284.736L197.653 294.352L229.791 316.344L226.996 299.714Z" fill="#3F3D56"/>
<path d="M245.395 340.954H312.877L310.51 333.285C295.841 327.975 304.081 316.561 290.127 309.584C255.998 292.519 242.785 241.596 247.782 221.466L225.417 220.521C225.417 220.521 194.529 308.236 245.395 340.954Z" fill="#3F3D56"/>
<path d="M183.952 296.916C183.858 295.437 183.469 293.991 182.808 292.664C182.148 291.337 181.229 290.155 180.106 289.187C180.09 289.174 180.075 289.161 180.06 289.147L180.017 289.11C178.509 287.785 177.381 286.083 176.746 284.179L176.696 284.029L176.854 284.017C178.071 283.919 179.264 283.62 180.384 283.133C179.043 283.244 177.693 283.075 176.421 282.638L176.348 282.616L176.335 282.541C176.054 280.928 176.125 279.272 176.545 277.689C176.964 276.106 177.722 274.633 178.765 273.37C179.809 272.108 181.113 271.086 182.589 270.376C184.065 269.666 185.677 269.284 187.315 269.257C188.318 269.244 189.308 269.021 190.22 268.6C191.131 268.179 191.944 267.571 192.604 266.816L192.698 266.709C193.563 265.724 194.546 264.85 195.624 264.104L195.706 264.047L195.779 264.116C196.467 264.765 197.237 265.321 198.069 265.771C197.464 265.138 196.962 264.414 196.582 263.625L196.53 263.522L196.63 263.463C199.911 261.545 203.769 260.858 207.511 261.524C211.253 262.191 214.635 264.167 217.053 267.1C219.47 270.033 220.765 273.731 220.705 277.531C220.644 281.332 219.233 284.987 216.724 287.842C216.13 288.517 215.481 289.142 214.783 289.709C210.875 292.812 207.713 296.753 205.531 301.241C205.075 302.197 204.489 303.085 203.789 303.879C203.67 304.015 203.543 304.152 203.412 304.287L203.261 304.443L203.204 304.233C203.03 303.607 202.936 302.962 202.922 302.313C202.658 303.215 202.511 304.147 202.487 305.086L202.485 305.143L202.441 305.179C200.814 306.507 198.85 307.357 196.768 307.633C194.686 307.91 192.568 307.603 190.65 306.746C188.733 305.889 187.091 304.516 185.908 302.78C184.725 301.045 184.048 299.014 183.952 296.916Z" fill="#E6E6E6"/>
<path opacity="0.15" d="M185.72 301.26C185.741 301.669 185.783 302.076 185.848 302.479C184.742 300.782 184.107 298.823 184.005 296.8C183.99 296.49 183.957 296.182 183.914 295.875C184.987 297.476 185.611 299.336 185.72 301.26Z" fill="black"/>
<path opacity="0.15" d="M182.151 287.476C181.251 287.866 180.302 288.134 179.33 288.274C178.956 287.879 178.611 287.457 178.297 287.013C179.537 287.428 180.848 287.585 182.151 287.476Z" fill="black"/>
<path opacity="0.15" d="M177.995 283.752C177.894 284.732 177.921 285.721 178.075 286.695C177.537 285.876 177.108 284.991 176.799 284.062L176.749 283.913L176.906 283.9C177.271 283.869 177.635 283.819 177.995 283.752Z" fill="black"/>
<path opacity="0.15" d="M179.044 272.989C180.088 271.804 181.367 270.85 182.8 270.188C184.233 269.525 185.789 269.168 187.367 269.14C188.371 269.128 189.361 268.904 190.272 268.484C191.184 268.063 191.996 267.455 192.657 266.699L192.75 266.592C193.616 265.608 194.598 264.733 195.676 263.988L195.759 263.931L195.831 263.999C196.52 264.648 197.29 265.205 198.122 265.654C197.516 265.022 197.015 264.298 196.635 263.509L196.583 263.405L196.683 263.347C198.858 262.074 201.304 261.333 203.82 261.185C206.336 261.037 208.852 261.486 211.161 262.495C213.471 263.504 215.509 265.045 217.11 266.992C218.711 268.939 219.829 271.237 220.372 273.698C219.325 271.859 217.924 270.247 216.249 268.953C214.574 267.66 212.66 266.711 210.616 266.163C208.572 265.615 206.439 265.479 204.342 265.761C202.245 266.043 200.224 266.738 198.398 267.807L198.298 267.865L198.35 267.969C198.73 268.758 199.232 269.482 199.837 270.114C199.005 269.665 198.235 269.108 197.547 268.459L197.474 268.391L197.392 268.448C196.314 269.193 195.331 270.068 194.466 271.052L194.372 271.159C193.712 271.915 192.899 272.523 191.988 272.943C191.076 273.364 190.086 273.588 189.083 273.6C186.458 273.645 183.931 274.598 181.93 276.298C179.93 277.997 178.582 280.338 178.114 282.921C177.56 282.822 177.012 282.688 176.473 282.522L176.4 282.5L176.387 282.425C176.093 280.753 176.179 279.037 176.639 277.404C177.099 275.77 177.921 274.261 179.044 272.989Z" fill="black"/>
<path d="M166.333 200.041C173.016 193.561 176.839 184.191 176.839 174.305C176.839 174.24 176.839 174.174 176.839 174.109L176.838 173.925C176.836 167.462 178.55 161.115 181.805 155.532L182.061 155.093L182.426 155.447C185.251 158.182 188.509 160.431 192.069 162.101C189.295 159.596 186.971 156.17 184.838 151.468L184.736 151.245L184.89 151.055C188.193 146.943 192.347 143.597 197.067 141.244C201.787 138.892 206.96 137.59 212.231 137.428C217.502 137.266 222.746 138.248 227.601 140.306C232.457 142.365 236.809 145.45 240.358 149.351C242.522 151.751 245.168 153.668 248.123 154.977C251.078 156.287 254.276 156.958 257.508 156.949L257.965 156.947C262.185 156.946 266.39 157.462 270.485 158.482L270.797 158.561L270.786 158.882C270.681 161.926 270.973 164.971 271.656 167.939C271.898 165.13 272.581 162.377 273.68 159.781L273.82 159.436L274.174 159.553C285.79 163.408 295.654 171.271 302 181.735C308.347 192.2 310.761 204.581 308.811 216.664C306.861 228.746 300.674 239.739 291.357 247.675C282.041 255.612 270.203 259.972 257.965 259.977C255.069 259.977 252.178 259.736 249.322 259.255C232.666 256.446 216.666 257.171 201.766 261.41C198.485 262.341 195.092 262.811 191.683 262.808C191.102 262.808 190.501 262.794 189.897 262.764L189.196 262.73L189.585 262.146C190.728 260.395 192.086 258.795 193.627 257.382C190.884 258.66 188.318 260.289 185.994 262.227L185.855 262.343L185.675 262.314C179.003 261.204 172.772 258.262 167.675 253.817C162.578 249.371 158.817 243.597 156.811 237.138C154.805 230.68 154.633 223.791 156.315 217.24C157.996 210.69 161.464 204.735 166.333 200.041Z" fill="#E6E6E6"/>
<g opacity="0.15">
<path d="M199.809 140.004C201.068 142.093 202.617 143.993 204.409 145.648C201.842 144.443 199.429 142.934 197.221 141.155C198.068 140.738 198.931 140.354 199.809 140.004Z" fill="black"/>
<path d="M178.673 183.588C176.687 185.515 174.926 187.661 173.423 189.985C175.685 185.068 176.851 179.718 176.839 174.306C176.839 174.241 176.839 174.175 176.839 174.11L176.838 173.926C176.836 167.463 178.55 161.116 181.805 155.533L182.061 155.094L182.425 155.447C184.439 157.393 186.674 159.095 189.085 160.519C188.464 169.408 184.752 177.694 178.673 183.588Z" fill="black"/>
<path d="M189.178 157.472L189.179 157.656C189.179 157.721 189.179 157.786 189.179 157.851C189.179 158.21 189.173 158.567 189.163 158.924C187.443 156.611 185.992 154.109 184.837 151.468L184.736 151.245L184.89 151.055C186.816 148.658 189.035 146.511 191.495 144.666C189.963 148.762 189.179 153.099 189.178 157.472Z" fill="black"/>
<path d="M166.333 200.042C168.089 198.333 169.65 196.434 170.987 194.38C168.594 199.478 167.414 205.062 167.539 210.693C167.665 216.323 169.092 221.848 171.711 226.835C174.329 231.822 178.066 236.135 182.629 239.435C187.193 242.736 192.459 244.935 198.015 245.861L198.195 245.89L198.335 245.774C200.658 243.836 203.224 242.207 205.967 240.929C204.426 242.342 203.068 243.942 201.925 245.693L201.536 246.278L202.237 246.311C202.842 246.341 203.443 246.355 204.023 246.355C207.432 246.358 210.826 245.888 214.106 244.957C229.006 240.718 245.006 239.993 261.662 242.803C264.518 243.283 267.409 243.524 270.305 243.524C282.928 243.533 295.112 238.887 304.524 230.475C300.349 239.293 293.758 246.746 285.517 251.968C277.275 257.191 267.721 259.968 257.965 259.977C255.069 259.977 252.178 259.736 249.322 259.256C232.666 256.447 216.665 257.172 201.765 261.411C198.485 262.342 195.092 262.812 191.682 262.809C191.102 262.809 190.501 262.794 189.896 262.765L189.196 262.731L189.585 262.147C190.727 260.396 192.085 258.795 193.627 257.383C190.884 258.661 188.318 260.289 185.994 262.228L185.855 262.344L185.674 262.314C179.003 261.205 172.771 258.263 167.675 253.817C162.578 249.372 158.817 243.598 156.811 237.139C154.805 230.681 154.633 223.792 156.314 217.241C157.996 210.691 161.464 204.736 166.333 200.042Z" fill="black"/>
</g>
<path d="M25.971 301.493C20.0699 301.493 14.3603 299.399 9.85717 295.586C5.35407 291.772 2.34938 286.485 1.37731 280.664L1.35721 280.541L1.43662 280.446C2.76001 278.859 3.87198 277.107 4.7447 275.234C3.78006 276.287 2.6872 277.214 1.49172 277.994L1.09272 278.26L1.06971 277.781C1.04961 277.368 1.03956 276.958 1.03956 276.562C1.03755 274.234 1.3588 271.917 1.99413 269.678C4.88861 259.504 5.38355 248.579 3.46535 237.207C3.13759 235.257 2.9729 233.283 2.97299 231.305C2.97594 222.949 5.95334 214.867 11.3721 208.506C16.7908 202.144 24.2969 197.92 32.5464 196.588C40.796 195.257 49.2501 196.905 56.395 201.239C63.5399 205.572 68.909 212.307 71.5408 220.238L71.6209 220.48L71.3849 220.575C69.6124 221.326 67.7327 221.792 65.8151 221.957C67.8417 222.423 69.9205 222.623 71.9988 222.551L72.2183 222.544L72.2717 222.757C72.9686 225.553 73.3207 228.424 73.3203 231.305L73.319 231.617C73.3124 233.824 73.771 236.008 74.6649 238.025C75.5588 240.043 76.8678 241.85 78.5067 243.327C81.17 245.751 83.2768 248.722 84.682 252.037C86.0873 255.352 86.7577 258.933 86.6472 262.532C86.5366 266.131 85.6477 269.663 84.0416 272.886C82.4356 276.108 80.1504 278.945 77.3434 281.2L77.2134 281.305L77.0611 281.236C73.8506 279.779 71.5117 278.192 69.8012 276.298C70.9415 278.729 72.4768 280.954 74.3445 282.883L74.586 283.132L74.2862 283.306C70.4743 285.529 66.1404 286.699 61.7278 286.698L61.602 286.697C61.5576 286.697 61.5129 286.697 61.4685 286.697C58.2094 286.663 54.9763 287.279 51.9588 288.511C48.9413 289.743 46.2001 291.565 43.8961 293.87C41.5663 296.27 38.7806 298.181 35.7025 299.49C32.6244 300.799 29.3159 301.48 25.971 301.493Z" fill="#E4E4E4"/>
<path d="M17.1479 340.776C17.0397 340.775 16.9351 340.736 16.8534 340.665C16.7717 340.594 16.7183 340.496 16.703 340.389C16.6839 340.255 14.8114 326.75 16.4931 308.802C18.0462 292.226 23.0337 268.352 37.9743 248.744C38.0101 248.697 38.0548 248.657 38.1059 248.628C38.157 248.598 38.2134 248.578 38.272 248.57C38.3306 248.563 38.3902 248.566 38.4474 248.581C38.5046 248.596 38.5582 248.623 38.6052 248.658C38.6523 248.694 38.6918 248.739 38.7215 248.79C38.7512 248.841 38.7706 248.898 38.7785 248.956C38.7863 249.015 38.7826 249.075 38.7674 249.132C38.7523 249.189 38.726 249.243 38.6901 249.29C23.8786 268.728 18.9313 292.427 17.3892 308.886C15.7172 326.73 17.575 340.129 17.594 340.262C17.603 340.326 17.5982 340.391 17.5799 340.453C17.5617 340.515 17.5303 340.572 17.488 340.621C17.4457 340.669 17.3935 340.708 17.3348 340.735C17.2761 340.762 17.2124 340.776 17.1479 340.776Z" fill="#3F3D56"/>
<path d="M24.6168 274.671C24.5218 274.671 24.4291 274.641 24.3522 274.586C24.2753 274.53 24.218 274.451 24.1886 274.361C24.1592 274.27 24.1591 274.173 24.1885 274.082C24.2178 273.992 24.275 273.913 24.3519 273.857C28.6091 270.976 33.2081 268.635 38.043 266.888C45.5966 264.122 57.083 261.615 68.908 265.379C68.9645 265.397 69.0169 265.425 69.0622 265.464C69.1076 265.502 69.145 265.548 69.1722 265.601C69.1995 265.653 69.2162 265.711 69.2212 265.77C69.2262 265.829 69.2196 265.888 69.2017 265.945C69.1837 266.001 69.1548 266.053 69.1166 266.098C69.0784 266.144 69.0316 266.181 68.979 266.208C68.9264 266.235 68.8689 266.252 68.8099 266.256C68.7509 266.261 68.6915 266.255 68.6351 266.236C57.0524 262.55 45.7742 265.016 38.3524 267.733C33.5952 269.45 29.07 271.752 24.881 274.585C24.8042 274.641 24.7118 274.671 24.6168 274.671Z" fill="#3F3D56"/>
<path d="M72.847 255.998C73.3666 255.856 73.8489 255.603 74.2598 255.254C74.6707 254.906 75.0003 254.472 75.2253 253.983C75.4503 253.494 75.5654 252.961 75.5623 252.422C75.5591 251.884 75.438 251.353 75.2073 250.866L83.1464 224.983L77.3069 223.825L70.0459 249.196C69.254 249.638 68.6516 250.355 68.353 251.211C68.0543 252.067 68.08 253.003 68.4253 253.841C68.7706 254.68 69.4114 255.362 70.2264 255.76C71.0413 256.157 71.9738 256.242 72.847 255.998Z" fill="#FFB6B6"/>
<path d="M83.6089 217.421C82.7662 217.087 81.8387 217.03 80.9617 217.26V217.265C80.666 217.336 80.38 217.443 80.1096 217.582C79.8132 217.727 79.536 217.909 79.2844 218.123C78.7401 218.575 78.3197 219.157 78.0626 219.816L74.1935 226.558C74.0823 226.749 74.0141 226.962 73.9938 227.182C73.9734 227.403 74.0013 227.625 74.0756 227.833C74.1482 228.043 74.2653 228.234 74.4188 228.394C74.5724 228.554 74.7588 228.679 74.9652 228.76L75.8011 229.087L79.772 230.646L81.235 231.225L82.221 231.611C82.427 231.692 82.6482 231.728 82.8694 231.716C83.0906 231.704 83.3065 231.644 83.5025 231.541C83.6984 231.438 83.8697 231.293 84.0046 231.118C84.1395 230.942 84.2349 230.739 84.2842 230.523L86.0311 222.973C86.4444 221.915 86.4215 220.737 85.9674 219.696C85.5134 218.655 84.6652 217.837 83.6089 217.421Z" fill="#3F3D56"/>
<path d="M95.115 333.89H99.1577L101.082 318.298H95.115V333.89Z" fill="#FFB6B6"/>
<path d="M92.9817 340.894H95.8806L96.3981 338.157L97.7233 340.894H105.412C105.781 340.894 106.14 340.777 106.436 340.558C106.733 340.34 106.953 340.032 107.062 339.68C107.172 339.329 107.166 338.951 107.046 338.602C106.926 338.254 106.697 337.953 106.394 337.744L100.254 333.503V330.736L93.796 331.122L92.9817 340.894Z" fill="#2F2E41"/>
<path d="M55.8015 325.869L59.2783 327.931L68.8867 315.501L63.7551 312.458L55.8015 325.869Z" fill="#FFB6B6"/>
<path d="M50.3938 330.806L52.8872 332.284L54.7284 330.194L54.4722 333.224L61.0854 337.146C61.4024 337.334 61.7711 337.416 62.1379 337.38C62.5046 337.343 62.8501 337.191 63.1239 336.944C63.3978 336.697 63.5856 336.369 63.6599 336.008C63.7342 335.647 63.6913 335.272 63.5372 334.937L60.4191 328.158L61.8305 325.778L56.0791 322.815L50.3938 330.806Z" fill="#2F2E41"/>
<path d="M96.9193 234.195L98.8838 246.718L80.2217 246.964L82.6776 234.932L96.9193 234.195Z" fill="#FFB6B6"/>
<path d="M98.9557 246.56L104.286 259.487L104.674 294.057L100.126 327.064H95.0918L93.0294 294.595L87.9568 272.379L82.9537 295.615L67.3977 318.358H59.7537L73.8072 293.296L75.4337 265.994C75.4337 265.994 74.4199 254.412 79.608 247.578L80.8709 243.93L98.9557 246.56Z" fill="#2F2E41"/>
<path d="M99.214 222.662C99.2033 222.549 99.1872 222.431 99.1658 222.319C98.7624 219.617 97.305 217.185 95.1125 215.555C92.9201 213.925 90.1712 213.23 87.4674 213.622C84.9282 214.002 82.6151 215.296 80.9618 217.26V217.266C80.876 217.367 80.7957 217.475 80.7153 217.582C80.5706 217.764 80.4366 217.957 80.308 218.15C79.1464 219.905 78.5482 221.973 78.5932 224.077V224.082C78.61 224.893 78.7233 225.699 78.9308 226.483C79.2877 227.854 79.5686 229.244 79.7721 230.647C79.9115 231.536 80.0186 232.41 80.099 233.262C80.1472 233.69 80.1848 234.114 80.2169 234.526V234.532C80.3777 236.573 80.4313 238.406 80.4795 239.826C80.5009 240.598 80.5224 241.241 80.5599 241.734C80.5608 241.766 80.5644 241.799 80.5706 241.83C80.6118 242.162 80.754 242.472 80.9779 242.72C81.0054 242.755 81.0359 242.787 81.069 242.817C81.3067 243.03 81.594 243.181 81.9049 243.256C82.0126 243.278 82.1221 243.288 82.2318 243.288H82.264L85.3882 241.83L87.8533 240.684L96.2184 236.782C96.5612 236.775 96.8937 236.664 97.1714 236.463C97.4492 236.262 97.6589 235.981 97.7725 235.657V235.652C97.7832 235.609 97.7993 235.566 97.81 235.518C98.2601 233.744 99.0586 231.842 99.3426 228.782C99.3801 228.342 99.4123 227.887 99.4283 227.399V227.394C99.4754 225.813 99.4037 224.232 99.214 222.662Z" fill="#3F3D56"/>
<path d="M87.5961 211.928C91.9539 211.928 95.4867 208.395 95.4867 204.037C95.4867 199.679 91.9539 196.146 87.5961 196.146C83.2383 196.146 79.7056 199.679 79.7056 204.037C79.7056 208.395 83.2383 211.928 87.5961 211.928Z" fill="#FFB6B6"/>
<path d="M79.1719 216.302C77.5097 216.304 75.9162 216.965 74.7408 218.14C73.5655 219.316 72.9042 220.909 72.9021 222.572V235.567C72.9015 237.028 73.4117 238.443 74.3443 239.567C75.2769 240.692 76.5733 241.455 78.0091 241.724H78.0144C78.3961 241.795 78.7836 241.831 79.1719 241.831H87.8533V216.302H79.1719Z" fill="#F9A825"/>
<path d="M79.2844 217.582V227.062C79.2844 227.352 79.3996 227.63 79.6046 227.835C79.8096 228.04 80.0877 228.155 80.3776 228.155C80.6676 228.155 80.9456 228.04 81.1506 227.835C81.3557 227.63 81.4708 227.352 81.4708 227.062V217.582H79.2844Z" fill="#3F3D56"/>
<path d="M84.1019 233.262H77.7463C77.5651 233.262 77.3856 233.298 77.2182 233.367C77.0508 233.437 76.8988 233.539 76.7708 233.667C76.6429 233.796 76.5416 233.948 76.4726 234.116C76.4037 234.283 76.3685 234.463 76.3691 234.644V238.444C76.3688 238.81 76.5136 239.161 76.7718 239.42C77.03 239.679 77.3805 239.825 77.7463 239.826H84.1019C84.4684 239.825 84.8195 239.679 85.0786 239.42C85.3377 239.161 85.4837 238.81 85.4845 238.444V234.644C85.4845 234.463 85.4488 234.283 85.3793 234.115C85.3098 233.947 85.208 233.795 85.0796 233.667C84.9512 233.538 84.7988 233.436 84.6311 233.367C84.4633 233.297 84.2835 233.262 84.1019 233.262Z" fill="#3F3D56"/>
<path d="M95.8425 232.06C97.5758 229.86 98.4907 227.126 98.4307 224.326C98.4307 218.696 95.077 214.115 90.9547 214.115C88.7417 214.115 86.6567 215.438 85.2344 217.744L85.8551 218.127C87.1416 216.041 89.0004 214.845 90.9547 214.845C94.6748 214.845 97.7013 219.098 97.7013 224.326C97.7619 226.954 96.9082 229.521 95.286 231.588L95.8425 232.06Z" fill="#6C63FF"/>
<path d="M113.038 251.125C113.276 250.642 113.406 250.113 113.418 249.574C113.43 249.036 113.323 248.501 113.106 248.008C112.889 247.516 112.567 247.076 112.162 246.721C111.756 246.367 111.278 246.105 110.761 245.955L96.6506 222.85L91.9121 226.453L106.089 248.711C105.894 249.597 106.031 250.523 106.474 251.315C106.917 252.106 107.635 252.707 108.491 253.005C109.348 253.302 110.284 253.275 111.122 252.929C111.96 252.582 112.641 251.94 113.038 251.125Z" fill="#FFB6B6"/>
<path d="M101.55 225.669L99.1656 222.32L97.8902 220.53L97.0596 219.361C96.7988 218.847 96.4359 218.391 95.9932 218.022C95.2374 217.389 94.2866 217.036 93.3011 217.023C92.3156 217.009 91.3556 217.336 90.5828 217.948C89.81 218.559 89.2716 219.419 89.0585 220.381C88.8453 221.343 88.9703 222.35 89.4125 223.231L91.8883 230.599C91.9598 230.809 92.0756 231.001 92.2277 231.162C92.3799 231.323 92.5648 231.449 92.7702 231.533C92.9755 231.616 93.1963 231.654 93.4177 231.645C93.6391 231.635 93.8558 231.578 94.0533 231.478L94.8517 231.071L96.1111 230.427L97.2418 229.854H97.2471L99.3424 228.782L100.055 228.423L100.998 227.941C101.195 227.839 101.368 227.696 101.505 227.522C101.642 227.348 101.74 227.146 101.792 226.931C101.844 226.715 101.85 226.491 101.808 226.273C101.766 226.056 101.679 225.85 101.55 225.669Z" fill="#3F3D56"/>
<path d="M474.434 341.417H1.53237C1.46754 341.417 1.4033 341.405 1.34334 341.38C1.28338 341.355 1.22888 341.319 1.18296 341.273C1.13704 341.227 1.1006 341.173 1.07574 341.113C1.05088 341.053 1.03809 340.989 1.03809 340.924C1.03809 340.859 1.05088 340.795 1.07574 340.735C1.1006 340.676 1.13704 340.621 1.18296 340.575C1.22888 340.53 1.28338 340.493 1.34334 340.469C1.4033 340.444 1.46754 340.431 1.53237 340.432H474.434C474.565 340.432 474.69 340.484 474.783 340.576C474.875 340.668 474.927 340.794 474.927 340.924C474.927 341.055 474.875 341.18 474.783 341.273C474.69 341.365 474.565 341.417 474.434 341.417Z" fill="#CCCCCC"/>
<path d="M251.673 300.117C249.602 296.281 249.312 291.254 251.856 287.714C253.114 292.285 255.948 296.263 259.857 298.945C261.369 299.974 263.157 300.961 263.674 302.715C263.946 303.833 263.778 305.013 263.206 306.011C262.634 306.996 261.939 307.904 261.136 308.712L261.063 308.987C257.313 306.764 253.745 303.953 251.673 300.117Z" fill="#E6E6E6"/>
<path d="M124.669 203.122C122.597 199.286 122.308 194.259 124.852 190.719C126.11 195.289 128.944 199.268 132.853 201.95C134.364 202.979 136.152 203.966 136.669 205.72C136.941 206.838 136.774 208.018 136.201 209.016C135.63 210.001 134.934 210.909 134.132 211.717L134.059 211.991C130.308 209.769 126.741 206.958 124.669 203.122Z" fill="#E6E6E6"/>
<path d="M82.7836 197.599V197.604C82.7844 197.948 82.7406 198.29 82.6534 198.622C82.6395 198.68 82.6229 198.741 82.6034 198.799V198.802C82.4175 199.395 82.0967 199.936 81.6663 200.385C81.2359 200.833 80.7076 201.175 80.1227 201.385C80.0368 201.418 79.9481 201.446 79.8594 201.471C79.6725 201.525 79.4815 201.564 79.2884 201.587C79.1148 201.612 78.9398 201.624 78.7645 201.623C78.6275 201.624 78.4906 201.618 78.3543 201.604C78.0353 201.572 77.7215 201.5 77.4202 201.391C77.373 201.377 77.3267 201.36 77.2816 201.341C77.2589 201.333 77.2367 201.323 77.215 201.313C76.7122 201.103 76.2574 200.792 75.8782 200.4C75.499 200.009 75.2034 199.544 75.0092 199.035C74.815 198.525 74.7264 197.982 74.7487 197.437C74.771 196.893 74.9038 196.358 75.139 195.866L75.1417 195.864C75.3388 195.451 75.6061 195.076 75.9317 194.755C76.6835 194.005 77.7025 193.584 78.7645 193.585C78.8172 193.584 78.87 193.586 78.9225 193.591C79.5341 193.616 80.132 193.78 80.6708 194.071C81.2096 194.361 81.6753 194.771 82.0325 195.268C82.3417 195.697 82.5622 196.183 82.6811 196.698C82.7491 196.993 82.7835 197.296 82.7836 197.599Z" fill="#2F2E41"/>
<path d="M78.1454 195.161C77.7921 193.83 77.0285 192.643 75.963 191.769C74.8974 190.896 73.584 190.38 72.2088 190.295C70.8336 190.21 69.4665 190.559 68.3013 191.294C67.136 192.03 66.2317 193.113 65.7166 194.391C64.8532 196.533 65.1697 198.963 64.6525 201.213C64.1311 203.257 62.954 205.073 61.3016 206.383C59.6492 207.693 57.6127 208.426 55.5042 208.468L63.3266 211.62C64.1619 212.047 65.0984 212.237 66.034 212.168C67.3952 211.938 68.3423 210.637 68.7257 209.311C69.1092 207.985 69.078 206.577 69.3207 205.218C69.6358 203.548 70.3531 201.98 71.4107 200.65C72.4683 199.321 73.8342 198.269 75.39 197.586C76.2707 197.21 77.2495 196.926 77.8723 196.198C78.495 195.471 78.4603 194.098 77.5578 193.777" fill="#2F2E41"/>
<path d="M90.8219 195.193C89.7608 192.874 86.961 193.346 84.4296 193.652C83.1655 193.847 81.968 194.347 80.9408 195.109C79.9137 195.872 79.0878 196.873 78.5349 198.026C77.4529 200.364 77.246 203.012 77.952 205.489C78.3306 207.176 79.2344 208.7 80.5335 209.841C81.8704 210.916 88.1552 213.459 88.6784 211.269C88.0243 214.126 89.3401 213.679 91.2878 215.868C92.2966 212.838 92.7695 207.128 93.7783 204.098L94.2339 202.729C94.554 201.768 94.8745 200.804 95.1058 199.818C95.3963 198.578 95.5082 197.157 94.7383 196.143C93.9684 195.129 92.0289 195.09 91.6397 196.302" fill="#2F2E41"/>
<path d="M89.5516 204.842L89.2144 202.695C89.4436 200.024 89.0694 195.776 90.822 195.192L91.8938 196.264C91.2158 196.49 89.9263 200.484 89.5516 204.842Z" fill="#FF6584"/>
</g>
<defs>
<clipPath id="clip0_250_673">
<rect width="500" height="341.417" fill="white"/>
</clipPath>
</defs>
</svg>
