<svg width="5" height="9" viewBox="0 0 5 9" fill="none" xmlns="http://www.w3.org/2000/svg">
<path d="M4.72021 8.43745C4.72008 8.28831 4.66073 8.14533 4.55521 8.03995L1.67821 5.16295C1.59113 5.07589 1.52206 4.97253 1.47493 4.85877C1.4278 4.74501 1.40354 4.62308 1.40354 4.49995C1.40354 4.37681 1.4278 4.25488 1.47493 4.14112C1.52206 4.02736 1.59113 3.924 1.67821 3.83695L4.55146 0.96182C4.65393 0.855732 4.71063 0.713643 4.70934 0.566157C4.70806 0.418671 4.6489 0.277589 4.54461 0.173297C4.44032 0.0690053 4.29924 0.00984776 4.15175 0.00856614C4.00427 0.00728451 3.86218 0.0639813 3.75609 0.166445L0.88284 3.03932C0.496502 3.42642 0.279524 3.95098 0.279523 4.49788C0.279523 5.04478 0.496501 5.56935 0.882839 5.95644L3.75984 8.83345C3.83839 8.91205 3.93847 8.96563 4.04745 8.98741C4.15642 9.0092 4.2694 8.99822 4.37214 8.95585C4.47488 8.91349 4.56277 8.84164 4.62472 8.74938C4.68666 8.65712 4.71989 8.54857 4.72021 8.43745Z" fill="black"/>
</svg>
