<svg width="500" height="341" viewBox="0 0 500 341" fill="none" xmlns="http://www.w3.org/2000/svg">
<g clip-path="url(#clip0_250_622)">
<path d="M6.64939 26.1279H136.53C138.293 26.1299 139.984 26.8311 141.23 28.0777C142.477 29.3243 143.178 31.0144 143.18 32.7773V225.37C143.178 227.133 142.477 228.823 141.23 230.07C139.984 231.316 138.293 232.018 136.53 232.02H6.64939C4.88647 232.018 3.19633 231.316 1.94976 230.07C0.703187 228.823 0.00198183 227.133 0 225.37V32.7773C0.00199277 31.0144 0.703199 29.3242 1.94977 28.0777C3.19634 26.8311 4.88648 26.1299 6.64939 26.1279Z" fill="#F2F2F2"/>
<path d="M8.26137 30.9639H134.918C135.827 30.9649 136.697 31.3261 137.34 31.9683C137.982 32.6105 138.343 33.4811 138.344 34.3893V223.758C138.343 224.667 137.982 225.537 137.34 226.179C136.697 226.822 135.827 227.183 134.918 227.184H8.26137C7.3532 227.183 6.48251 226.822 5.84034 226.179C5.19817 225.537 4.83695 224.667 4.83594 223.758V34.3893C4.83695 33.4811 5.19817 32.6105 5.84034 31.9683C6.48251 31.3261 7.3532 30.9649 8.26137 30.9639Z" fill="white"/>
<path d="M96.2796 101.694C96.2796 113.868 85.0228 112.026 71.1369 112.026C57.2509 112.026 45.9941 113.868 45.9941 101.694C45.9941 89.5197 51.4928 67.9404 71.1369 67.9404C91.4577 67.9404 96.2796 89.5197 96.2796 101.694Z" fill="#2F2E41"/>
<path d="M125.857 204.744C126.361 203.786 126.649 202.73 126.7 201.649C126.751 200.569 126.565 199.49 126.155 198.489C125.744 197.488 125.119 196.59 124.323 195.857C123.528 195.123 122.581 194.574 121.55 194.246L92.7455 133.312L79.5693 142.551L112.027 199.542C111.591 201.311 111.819 203.177 112.668 204.789C113.516 206.401 114.927 207.645 116.632 208.286C118.337 208.927 120.217 208.921 121.918 208.268C123.618 207.615 125.02 206.361 125.857 204.744Z" fill="#A0616A"/>
<path d="M100.793 138.664L99.1461 136.087L98.3059 134.765L91.8376 124.625C90.8416 122.399 89.0038 120.659 86.7269 119.786C84.4501 118.913 81.9199 118.978 79.691 119.967C77.462 120.956 75.7162 122.788 74.836 125.062C73.9558 127.337 74.013 129.867 74.9953 132.099L76.4766 137.382L79.5003 148.183C79.6838 148.848 80.0748 149.437 80.6163 149.864C80.8214 150.036 81.0484 150.179 81.2914 150.291C81.7145 150.491 82.1753 150.599 82.6432 150.607C83.1111 150.616 83.5754 150.524 84.0054 150.339C84.0192 150.333 84.0401 150.326 84.0538 150.319L91.879 146.819L91.8928 146.813L97.865 144.14L99.353 143.479C99.7797 143.289 100.16 143.009 100.469 142.659C100.796 142.298 101.036 141.866 101.171 141.398C101.311 140.942 101.349 140.461 101.284 139.989C101.219 139.517 101.051 139.064 100.793 138.664Z" fill="#CCCCCC"/>
<path d="M59.5101 225.058C59.2175 224.573 58.8054 224.17 58.3131 223.889C57.8209 223.607 57.2647 223.457 56.6978 223.451C56.1309 223.446 55.5719 223.586 55.0743 223.857C54.5766 224.129 54.1568 224.523 53.8547 225.003C53.7242 225.2 53.6201 225.413 53.545 225.637L53.1521 226.718H60.5091L59.5101 225.058Z" fill="#2F2E41"/>
<path d="M70.9787 111.328C80.3227 111.328 87.8974 103.753 87.8974 94.4089C87.8974 85.065 80.3227 77.4902 70.9787 77.4902C61.6348 77.4902 54.0601 85.065 54.0601 94.4089C54.0601 103.753 61.6348 111.328 70.9787 111.328Z" fill="#A0616A"/>
<path d="M100.634 144.45C100.593 143.844 100.537 143.244 100.469 142.659C100.224 140.433 99.7817 138.234 99.146 136.087C99.0152 135.619 98.8705 135.164 98.7121 134.716C96.6979 128.781 93.1977 123.459 88.545 119.259C86.7028 117.608 84.3161 116.696 81.8425 116.696H58.0085C56.545 116.696 55.0992 117.016 53.7722 117.634C52.4453 118.251 51.2692 119.151 50.3263 120.27C49.3835 121.39 48.6966 122.701 48.3137 124.114C47.9308 125.526 47.8612 127.006 48.1098 128.448C48.1027 128.455 48.1027 128.455 48.1098 128.462C48.278 129.425 48.5867 130.358 49.026 131.231L49.9903 133.153L56.4516 146.075L64.4903 162.153L64.9588 163.09L94.9167 171.328L95.0405 171.046C95.1508 170.798 95.2679 170.543 95.3712 170.295C95.5367 169.923 95.6951 169.551 95.8535 169.186C98.5216 163.117 100.143 156.64 100.648 150.029V150.022C100.761 148.166 100.756 146.305 100.634 144.45Z" fill="#3F3D56"/>
<path d="M95.8534 169.186C95.7516 168.836 95.5909 168.505 95.3782 168.208C94.6067 167.176 93.6849 166.266 92.6433 165.508L92.6366 165.501C89.0064 162.746 81.8011 159.536 67.8796 159.453H67.8588C67.2208 159.454 66.5965 159.638 66.0602 159.983C65.524 160.329 65.0986 160.822 64.8347 161.403L64.4902 162.153L62.2724 167.03C62.0832 167.448 61.7859 167.807 61.4113 168.071C57.8914 170.564 40.8426 184.548 50.8513 215.249C51.8294 218.246 52.8351 221.518 53.8546 225.003C54.02 225.568 54.1854 226.14 54.3507 226.719H84.3567L83.7159 221.897C83.6732 221.582 83.6896 221.262 83.7644 220.953L95.8396 171.122L95.8948 170.909C96.0328 170.341 96.0186 169.747 95.8534 169.186Z" fill="#2F2E41"/>
<path d="M105.27 113.404H118.358C118.906 113.404 119.432 113.622 119.819 114.01C120.207 114.397 120.424 114.923 120.424 115.471V118.915C120.607 118.916 120.782 118.988 120.911 119.117C121.04 119.246 121.113 119.421 121.113 119.604V120.982C121.113 121.164 121.04 121.339 120.911 121.468C120.782 121.597 120.607 121.67 120.424 121.67V123.048C120.607 123.049 120.782 123.121 120.911 123.25C121.04 123.38 121.113 123.554 121.113 123.737V125.115C121.113 125.297 121.04 125.472 120.911 125.601C120.782 125.73 120.607 125.803 120.424 125.803V144.402C120.424 144.95 120.207 145.476 119.819 145.863C119.432 146.251 118.906 146.469 118.358 146.469H105.27C104.722 146.469 104.196 146.251 103.809 145.863C103.421 145.476 103.203 144.95 103.203 144.402V115.471C103.203 114.923 103.421 114.397 103.809 114.01C104.196 113.622 104.722 113.404 105.27 113.404Z" fill="#3F3D56"/>
<path d="M104.581 144.402V115.471C104.581 114.923 104.799 114.397 105.186 114.01C105.574 113.622 106.1 113.404 106.648 113.404H105.27C104.722 113.404 104.196 113.622 103.809 114.01C103.421 114.397 103.203 114.923 103.203 115.471V144.402C103.203 144.95 103.421 145.476 103.809 145.863C104.196 146.251 104.722 146.469 105.27 146.469H106.648C106.1 146.469 105.574 146.251 105.186 145.863C104.799 145.476 104.581 144.95 104.581 144.402Z" fill="#6C63FF"/>
<path d="M111.469 125.803C112.991 125.803 114.225 124.569 114.225 123.047C114.225 121.526 112.991 120.292 111.469 120.292C109.948 120.292 108.714 121.526 108.714 123.047C108.714 124.569 109.948 125.803 111.469 125.803Z" fill="white"/>
<path d="M107.973 132.701C107.75 133.01 107.551 133.335 107.378 133.675L73.46 137.75L68.4722 131.117L57.4778 137.336L65.1665 149.936C65.7876 150.954 66.7222 151.743 67.83 152.185C68.9377 152.626 70.1588 152.697 71.3099 152.385L108.826 142.235C109.893 143.244 111.241 143.906 112.692 144.13C114.143 144.355 115.628 144.133 116.95 143.493C118.271 142.853 119.367 141.826 120.09 140.548C120.814 139.271 121.132 137.803 121.001 136.34C120.87 134.878 120.297 133.49 119.358 132.361C118.419 131.232 117.158 130.416 115.744 130.021C114.33 129.625 112.829 129.67 111.441 130.149C110.053 130.628 108.843 131.518 107.973 132.701Z" fill="#A0616A"/>
<path d="M73.1768 133.505L63.6706 121.188C62.6098 119.29 60.8701 117.864 58.8009 117.196C56.7318 116.528 54.4865 116.667 52.5161 117.587C50.5457 118.506 48.9961 120.137 48.1788 122.152C47.3614 124.167 47.3368 126.416 48.1098 128.448C48.1027 128.455 48.1027 128.455 48.1098 128.462C48.2515 128.838 48.4218 129.201 48.6193 129.551L49.9903 133.153L54.1576 144.14C54.3152 144.557 54.5612 144.935 54.8787 145.248C55.1963 145.561 55.5778 145.801 55.9971 145.952C56.1448 146.006 56.2968 146.047 56.4515 146.076C57.1734 146.223 57.9241 146.106 58.5665 145.745L61.5836 144.058L72.2331 138.106C72.6205 137.886 72.9567 137.586 73.2192 137.226C73.4817 136.867 73.6645 136.455 73.7554 136.019C73.8448 135.583 73.8394 135.133 73.7396 134.699C73.6398 134.265 73.4478 133.858 73.1768 133.505Z" fill="#3F3D56"/>
<path d="M51.5049 97.5605H58.1965L61.1487 87.3868L61.739 97.5605H64.9373L66.6594 91.6258L67.0038 97.5605H90.7689C90.7689 85.3865 82.7504 75.5176 72.859 75.5176H69.4147C59.5234 75.5176 51.5049 85.3865 51.5049 97.5605Z" fill="#2F2E41"/>
<path d="M247.74 84.6282H107.5C105.737 84.6262 104.046 83.925 102.8 82.6785C101.553 81.4319 100.852 79.7417 100.85 77.9788V6.64939C100.852 4.88647 101.553 3.19632 102.8 1.94975C104.046 0.703177 105.737 0.00198183 107.5 0H247.74C249.503 0.00198002 251.194 0.703176 252.44 1.94975C253.687 3.19632 254.388 4.88647 254.39 6.64939V77.9789C254.388 79.7418 253.687 81.4319 252.44 82.6785C251.194 83.9251 249.503 84.6262 247.74 84.6282Z" fill="#CCCCCC"/>
<path d="M246.129 79.7923H109.111C108.203 79.7913 107.333 79.4301 106.69 78.7879C106.048 78.1458 105.687 77.2751 105.686 76.3669V8.26137C105.687 7.3532 106.048 6.48251 106.69 5.84034C107.333 5.19817 108.203 4.83695 109.111 4.83594H246.129C247.037 4.83695 247.907 5.19817 248.55 5.84034C249.192 6.48251 249.553 7.3532 249.554 8.26137V76.3669C249.553 77.2751 249.192 78.1458 248.55 78.7879C247.907 79.4301 247.037 79.7913 246.129 79.7923Z" fill="white"/>
<path d="M115.908 97.7399C115.568 97.739 115.231 97.6709 114.917 97.5396C114.449 97.3513 114.048 97.0261 113.768 96.6064C113.487 96.1867 113.34 95.6921 113.346 95.1873V82.0775L133.102 81.5781L117.692 96.9876C117.459 97.2248 117.181 97.4135 116.875 97.5426C116.569 97.6718 116.24 97.7388 115.908 97.7399Z" fill="#CCCCCC"/>
<path d="M229.446 39.2603H160.131C159.708 39.261 159.288 39.178 158.896 39.0163C158.505 38.8546 158.149 38.6172 157.849 38.3178C157.549 38.0183 157.311 37.6627 157.149 37.2713C156.986 36.8798 156.903 36.4602 156.903 36.0364C156.903 35.6127 156.986 35.193 157.149 34.8016C157.311 34.4101 157.549 34.0545 157.849 33.7551C158.149 33.4557 158.505 33.2183 158.896 33.0566C159.288 32.8948 159.708 32.8119 160.131 32.8125H229.446C230.301 32.8125 231.121 33.1522 231.726 33.7568C232.33 34.3614 232.67 35.1814 232.67 36.0364C232.67 36.8915 232.33 37.7115 231.726 38.3161C231.121 38.9207 230.301 39.2603 229.446 39.2603Z" fill="#CCCCCC"/>
<path d="M206.878 25.5582H160.131C159.276 25.5582 158.456 25.2185 157.852 24.6139C157.247 24.0093 156.907 23.1893 156.907 22.3343C156.907 21.4792 157.247 20.6592 157.852 20.0546C158.456 19.45 159.276 19.1104 160.131 19.1104H206.878C207.733 19.1104 208.553 19.45 209.158 20.0546C209.763 20.6592 210.102 21.4792 210.102 22.3343C210.102 23.1893 209.763 24.0093 209.158 24.6139C208.553 25.2185 207.733 25.5582 206.878 25.5582Z" fill="#CCCCCC"/>
<path d="M131.438 39.2599C137.002 39.2599 141.513 34.7493 141.513 29.1851C141.513 23.621 137.002 19.1104 131.438 19.1104C125.874 19.1104 121.364 23.621 121.364 29.1851C121.364 34.7493 125.874 39.2599 131.438 39.2599Z" fill="#F9A825"/>
<path d="M208.085 65.5182C209.866 65.5182 211.309 64.0748 211.309 62.2942C211.309 60.5137 209.866 59.0703 208.085 59.0703C206.305 59.0703 204.861 60.5137 204.861 62.2942C204.861 64.0748 206.305 65.5182 208.085 65.5182Z" fill="#E6E6E6"/>
<path d="M219.369 65.5182C221.149 65.5182 222.593 64.0748 222.593 62.2942C222.593 60.5137 221.149 59.0703 219.369 59.0703C217.588 59.0703 216.145 60.5137 216.145 62.2942C216.145 64.0748 217.588 65.5182 219.369 65.5182Z" fill="#E6E6E6"/>
<path d="M230.653 65.5182C232.433 65.5182 233.877 64.0748 233.877 62.2942C233.877 60.5137 232.433 59.0703 230.653 59.0703C228.872 59.0703 227.429 60.5137 227.429 62.2942C227.429 64.0748 228.872 65.5182 230.653 65.5182Z" fill="#E6E6E6"/>
<path d="M363.47 134.276H493.351C495.114 134.278 496.804 134.98 498.05 136.226C499.297 137.473 499.998 139.163 500 140.926V333.519C499.998 335.282 499.297 336.972 498.05 338.218C496.804 339.465 495.114 340.166 493.351 340.168H363.47C361.707 340.166 360.017 339.465 358.77 338.218C357.524 336.972 356.822 335.282 356.82 333.519V140.926C356.822 139.163 357.524 137.473 358.77 136.226C360.017 134.98 361.707 134.278 363.47 134.276Z" fill="#F2F2F2"/>
<path d="M365.082 139.112H491.739C492.647 139.113 493.518 139.475 494.16 140.117C494.802 140.759 495.163 141.63 495.164 142.538V331.907C495.163 332.815 494.802 333.686 494.16 334.328C493.518 334.97 492.647 335.331 491.739 335.332H365.082C364.173 335.331 363.303 334.97 362.661 334.328C362.018 333.686 361.657 332.815 361.656 331.907V142.538C361.657 141.63 362.018 140.759 362.661 140.117C363.303 139.475 364.173 139.113 365.082 139.112Z" fill="white"/>
<path d="M368.925 231.785H228.684C226.921 231.783 225.231 231.082 223.984 229.836C222.738 228.589 222.037 226.899 222.035 225.136V153.807C222.037 152.044 222.738 150.354 223.984 149.107C225.231 147.86 226.921 147.159 228.684 147.157H368.925C370.688 147.159 372.378 147.86 373.625 149.107C374.871 150.354 375.573 152.044 375.574 153.807V225.136C375.573 226.899 374.871 228.589 373.625 229.836C372.378 231.082 370.688 231.783 368.925 231.785Z" fill="#CCCCCC"/>
<path d="M367.313 226.95H230.296C229.388 226.949 228.517 226.587 227.875 225.945C227.233 225.303 226.872 224.432 226.871 223.524V155.419C226.872 154.51 227.233 153.64 227.875 152.998C228.517 152.355 229.388 151.994 230.296 151.993H367.313C368.221 151.994 369.092 152.355 369.734 152.998C370.376 153.64 370.738 154.51 370.739 155.419V223.524C370.738 224.432 370.376 225.303 369.734 225.945C369.092 226.587 368.221 226.949 367.313 226.95Z" fill="white"/>
<path d="M359.378 244.145L343.968 228.735L363.724 229.235V242.345C363.73 242.849 363.582 243.344 363.302 243.764C363.022 244.183 362.621 244.509 362.153 244.697C361.839 244.828 361.502 244.896 361.162 244.897C360.83 244.896 360.501 244.829 360.195 244.7C359.888 244.571 359.611 244.382 359.378 244.145Z" fill="#CCCCCC"/>
<path d="M350.63 186.418H281.316C280.892 186.418 280.472 186.335 280.081 186.174C279.689 186.012 279.333 185.774 279.033 185.475C278.733 185.176 278.495 184.82 278.333 184.428C278.171 184.037 278.087 183.617 278.087 183.194C278.087 182.77 278.171 182.35 278.333 181.959C278.495 181.567 278.733 181.212 279.033 180.912C279.333 180.613 279.689 180.376 280.081 180.214C280.472 180.052 280.892 179.969 281.316 179.97H350.63C351.054 179.969 351.474 180.052 351.866 180.214C352.257 180.376 352.613 180.613 352.913 180.912C353.213 181.212 353.451 181.567 353.613 181.959C353.775 182.35 353.859 182.77 353.859 183.194C353.859 183.617 353.775 184.037 353.613 184.428C353.451 184.82 353.213 185.176 352.913 185.475C352.613 185.774 352.257 186.012 351.866 186.174C351.474 186.335 351.054 186.418 350.63 186.418Z" fill="#CCCCCC"/>
<path d="M328.063 172.715H281.316C280.892 172.715 280.473 172.632 280.082 172.47C279.691 172.308 279.335 172.071 279.036 171.771C278.737 171.472 278.499 171.116 278.337 170.725C278.175 170.334 278.092 169.915 278.092 169.492C278.092 169.068 278.175 168.649 278.337 168.258C278.499 167.867 278.737 167.511 279.036 167.212C279.335 166.912 279.691 166.675 280.082 166.513C280.473 166.351 280.892 166.268 281.316 166.268H328.063C328.918 166.268 329.738 166.607 330.342 167.212C330.947 167.816 331.287 168.636 331.287 169.492C331.287 170.347 330.947 171.167 330.342 171.771C329.738 172.376 328.918 172.715 328.063 172.715Z" fill="#CCCCCC"/>
<path d="M252.623 186.417C258.187 186.417 262.697 181.907 262.697 176.342C262.697 170.778 258.187 166.268 252.623 166.268C247.058 166.268 242.548 170.778 242.548 176.342C242.548 181.907 247.058 186.417 252.623 186.417Z" fill="#F9A825"/>
<path d="M329.27 212.675C331.05 212.675 332.494 211.232 332.494 209.451C332.494 207.671 331.05 206.228 329.27 206.228C327.489 206.228 326.046 207.671 326.046 209.451C326.046 211.232 327.489 212.675 329.27 212.675Z" fill="#E6E6E6"/>
<path d="M340.554 212.675C342.334 212.675 343.777 211.232 343.777 209.451C343.777 207.671 342.334 206.228 340.554 206.228C338.773 206.228 337.33 207.671 337.33 209.451C337.33 211.232 338.773 212.675 340.554 212.675Z" fill="#E6E6E6"/>
<path d="M351.837 212.675C353.618 212.675 355.061 211.232 355.061 209.451C355.061 207.671 353.618 206.228 351.837 206.228C350.057 206.228 348.613 207.671 348.613 209.451C348.613 211.232 350.057 212.675 351.837 212.675Z" fill="#E6E6E6"/>
<path d="M370.466 274.958C371.024 274.113 371.76 273.401 372.623 272.872C373.487 272.342 374.456 272.008 375.462 271.894C376.468 271.779 377.487 271.887 378.447 272.209C379.407 272.531 380.285 273.059 381.019 273.757L402.893 262.467L401.533 275.186L380.97 283.957C379.715 285.112 378.081 285.767 376.377 285.798C374.672 285.828 373.015 285.233 371.72 284.123C370.426 283.014 369.583 281.469 369.352 279.779C369.12 278.09 369.517 276.375 370.466 274.958Z" fill="#FFB8B8"/>
<path d="M438.573 218.411C436.876 217.084 434.796 216.34 432.642 216.292C430.488 216.243 428.376 216.892 426.622 218.143C425.83 218.711 425.123 219.388 424.521 220.154L405.316 255.774L387.592 269.165C387.005 269.608 386.594 270.245 386.435 270.963C386.314 271.49 386.335 272.039 386.496 272.554L388.239 278.175C388.426 278.779 388.791 279.312 389.287 279.704C389.48 279.849 389.688 279.974 389.906 280.076C389.933 280.091 389.96 280.102 389.989 280.111C390.376 280.277 390.792 280.362 391.212 280.361C391.633 280.359 392.049 280.272 392.434 280.104L413.21 271.094L413.437 270.991C420.44 267.892 426.095 262.379 429.37 255.457L440.295 232.402C441.914 230.315 442.642 227.673 442.319 225.051C441.997 222.43 440.65 220.043 438.573 218.411Z" fill="#3F3D56"/>
<path d="M440.774 205.286C450.118 205.286 457.693 197.711 457.693 188.367C457.693 179.023 450.118 171.448 440.774 171.448C431.43 171.448 423.856 179.023 423.856 188.367C423.856 197.711 431.43 205.286 440.774 205.286Z" fill="#FFB8B8"/>
<path d="M452.226 301.506L452.054 300.19L451.255 294.191L450.38 287.64L447.273 288.17L446.075 288.37L444.862 288.576L444.463 288.645L413.644 293.881L409.807 291.573L409.724 291.525L409.759 291.876L410.482 299.378L413.933 335.211H456.724L452.226 301.506Z" fill="#2F2E41"/>
<path d="M464.074 232.671C463.525 226.534 460.625 220.847 455.98 216.8C451.509 212.841 445.65 210.819 439.689 211.179C434.006 211.558 429.639 213.893 426.621 218.143C425.069 220.418 423.923 222.944 423.232 225.61C419.802 237.954 416.186 256.036 413.437 270.991C411.894 279.34 410.627 286.717 409.807 291.573C409.793 291.677 409.78 291.773 409.759 291.877C409.442 293.771 409.201 295.252 409.043 296.237C408.942 296.844 409.026 297.468 409.282 298.028C409.539 298.587 409.956 299.058 410.482 299.378C410.489 299.385 410.503 299.392 410.51 299.399C413.987 301.479 417.955 302.594 422.006 302.629C426.911 302.629 432.794 300.921 438.986 295.403C439.407 295.021 439.948 294.799 440.516 294.775C441.084 294.751 441.642 294.927 442.093 295.273L442.768 295.796L449.436 300.983C449.957 301.39 450.594 301.619 451.255 301.637C451.584 301.652 451.913 301.608 452.226 301.507C452.254 301.503 452.282 301.496 452.308 301.486C452.789 301.329 453.224 301.057 453.575 300.693C453.926 300.329 454.182 299.885 454.32 299.399C454.692 298.104 455.105 296.609 455.56 294.942C455.746 294.246 455.939 293.516 456.138 292.758C457.013 289.41 457.985 285.525 458.935 281.296C462.256 266.513 465.41 247.522 464.074 232.671Z" fill="#3F3D56"/>
<path d="M436.213 303.273C436.13 302.264 436.27 301.249 436.623 300.3C436.975 299.35 437.532 298.49 438.253 297.779C438.974 297.068 439.842 296.523 440.796 296.184C441.75 295.845 442.767 295.719 443.775 295.815L454.02 273.433L460.799 284.28L450.031 303.872C449.757 305.555 448.876 307.079 447.553 308.155C446.231 309.231 444.559 309.784 442.856 309.711C441.153 309.637 439.536 308.941 438.311 307.754C437.087 306.568 436.34 304.973 436.213 303.273Z" fill="#FFB8B8"/>
<path d="M470.528 251.579L464.894 226.691C464.88 224.236 463.964 221.872 462.32 220.048C460.677 218.224 458.42 217.068 455.98 216.799C455.629 216.765 455.271 216.744 454.905 216.744C453.59 216.748 452.288 217.01 451.074 217.517C449.86 218.025 448.758 218.766 447.831 219.7C446.904 220.633 446.17 221.74 445.671 222.958C445.172 224.175 444.919 225.479 444.924 226.794L451.799 266.671L451.778 266.754L448.134 280.51L446.116 288.149C446.095 288.221 446.081 288.295 446.075 288.37C445.945 289.011 446.03 289.676 446.316 290.264C446.545 290.758 446.901 291.181 447.349 291.49L451.255 294.191L452.185 294.838C452.702 295.199 453.318 295.391 453.948 295.389C454.191 295.389 454.434 295.361 454.671 295.307C454.699 295.3 454.719 295.293 454.747 295.286C455.033 295.211 455.307 295.095 455.56 294.941C456.029 294.657 456.414 294.253 456.676 293.77L467.463 273.856C471.148 267.046 472.237 259.131 470.528 251.579Z" fill="#3F3D56"/>
<path opacity="0.2" d="M446.296 243.609L452.495 269.785L443.541 291.828L449.74 270.474L446.296 243.609Z" fill="black"/>
<path d="M454.467 198.534C455.885 198.029 457.188 197.247 458.302 196.235C458.795 195.796 459.324 195.387 459.815 194.948C464.154 191.068 465.457 184.395 463.521 178.906C461.586 173.417 456.772 169.198 451.271 167.296C445.77 165.395 439.672 165.654 434.087 167.291C428.07 169.054 422.045 173.023 420.616 179.128C420.235 180.753 420.221 182.555 421.327 183.926C421.66 184.34 422.096 184.659 422.591 184.852C424.54 185.6 425.627 184.074 427.082 183.426C429.082 182.535 431.544 183.497 432.936 185.187C434.329 186.877 434.844 189.121 435.058 191.3C435.101 192.644 435.312 193.977 435.685 195.268C435.879 195.913 436.235 196.497 436.719 196.966C437.202 197.435 437.797 197.772 438.448 197.947C440.017 198.236 441.527 197.156 442.514 195.902C443.502 194.648 444.202 193.159 445.368 192.07C446.535 190.981 448.438 190.406 449.717 191.361C450.146 191.722 450.507 192.156 450.785 192.643C452.745 195.654 452.507 195.523 454.467 198.534Z" fill="#2F2E41"/>
<path d="M373.444 260.473L361.509 265.843C361.009 266.068 360.619 266.482 360.424 266.994C360.23 267.507 360.247 268.076 360.472 268.575L361.885 271.716C361.719 271.792 361.589 271.93 361.524 272.1C361.46 272.271 361.465 272.46 361.54 272.627L362.105 273.884C362.18 274.05 362.318 274.179 362.489 274.244C362.66 274.309 362.849 274.303 363.016 274.229L363.581 275.485C363.415 275.561 363.285 275.699 363.22 275.87C363.156 276.04 363.161 276.23 363.235 276.396L363.801 277.653C363.876 277.819 364.014 277.949 364.185 278.013C364.355 278.078 364.545 278.073 364.711 277.998L372.342 294.959C372.567 295.459 372.981 295.849 373.494 296.044C374.006 296.238 374.575 296.221 375.075 295.996L387.01 290.626C387.51 290.401 387.9 289.987 388.095 289.475C388.289 288.962 388.272 288.394 388.047 287.894L376.177 261.51C375.952 261.01 375.538 260.62 375.025 260.425C374.513 260.231 373.944 260.248 373.444 260.473Z" fill="#3F3D56"/>
<path d="M385.835 286.338L384.154 282.598L379.746 272.802L375.875 264.199C375.66 263.719 375.263 263.345 374.772 263.158C374.282 262.97 373.737 262.985 373.257 263.2L366.686 266.155L363.675 267.512C363.198 267.729 362.825 268.126 362.64 268.616C362.454 269.107 362.469 269.651 362.683 270.13L366.686 279.029L368.222 282.439L372.644 292.276C372.862 292.754 373.26 293.127 373.752 293.313C374.243 293.498 374.789 293.482 375.268 293.268L384.843 288.956C385.321 288.739 385.694 288.342 385.88 287.852C386.066 287.361 386.05 286.817 385.835 286.338Z" fill="#F9A825"/>
</g>
<defs>
<clipPath id="clip0_250_622">
<rect width="500" height="340.168" fill="white"/>
</clipPath>
</defs>
</svg>
