<svg width="5" height="9" viewBox="0 0 5 9" fill="none" xmlns="http://www.w3.org/2000/svg">
<path d="M0.279785 0.562554C0.279916 0.711689 0.339266 0.854667 0.444785 0.960054L3.32178 3.83705C3.40887 3.92411 3.47794 4.02747 3.52507 4.14123C3.5722 4.25499 3.59646 4.37692 3.59646 4.50005C3.59646 4.62319 3.5722 4.74512 3.52507 4.85888C3.47794 4.97264 3.40887 5.076 3.32178 5.16305L0.448535 8.03818C0.346071 8.14427 0.289374 8.28636 0.290656 8.43384C0.291938 8.58133 0.351095 8.72241 0.455387 8.8267C0.559679 8.93099 0.700761 8.99015 0.848247 8.99143C0.995733 8.99272 1.13782 8.93602 1.24391 8.83355L4.11716 5.96068C4.5035 5.57358 4.72048 5.04902 4.72048 4.50212C4.72048 3.95521 4.5035 3.43065 4.11716 3.04355L1.24016 0.166554C1.16161 0.0879488 1.06153 0.0343723 0.952553 0.0125866C0.843579 -0.00919914 0.730594 0.00178242 0.627856 0.0441456C0.525117 0.0865088 0.437229 0.158356 0.375282 0.250618C0.313335 0.34288 0.280105 0.451426 0.279785 0.562554Z" fill="white"/>
</svg>
